<?xml version="1.0" encoding="UTF-8"?><svg width="384" height="384" version="1.1" viewBox="0 0 384 384" xmlns="http://www.w3.org/2000/svg" xmlns:xlink="http://www.w3.org/1999/xlink"><!--Generated by IJSVG (https://github.com/curthard89/IJSVG)--><g transform="scale(16)"><path fill="#000" d="M12.7071,4.29289c0.390524,0.390524 0.390524,1.02369 0,1.41421c-0.390524,0.390524 -1.02369,0.390524 -1.41421,0c-0.390524,-0.390524 -0.390524,-1.02369 0,-1.41421c0.390524,-0.390524 1.02369,-0.390524 1.41421,0"></path><path fill="#000" d="M7.85355,16.1464c0.195262,0.195262 0.195262,0.511845 0,0.707107c-0.195262,0.195262 -0.511845,0.195262 -0.707107,0c-0.195262,-0.195262 -0.195262,-0.511845 0,-0.707107c0.195262,-0.195262 0.511845,-0.195262 0.707107,0"></path><path fill="#000" d="M16.8536,16.1464c0.195262,0.195262 0.195262,0.511845 0,0.707107c-0.195262,0.195262 -0.511845,0.195262 -0.707107,0c-0.195262,-0.195262 -0.195262,-0.511845 0,-0.707107c0.195262,-0.195262 0.511845,-0.195262 0.707107,0"></path><path fill="#000" d="M14.5,0h-5c-4.687,0 -8.5,3.813 -8.5,8.5v15c0,0.276 0.224,0.5 0.5,0.5h0.775l3.521,-3.961c-1.087,-0.413 -1.796,-0.938 -1.796,-1.539l0.877,-13.166c0.087,-1.309 1.182,-2.334 2.494,-2.334h9.258c1.313,0 2.407,1.025 2.494,2.334l0.876,13.132c0,0.615 -0.71,1.149 -1.8,1.567l3.526,3.967h0.775c0.276,0 0.5,-0.224 0.5,-0.5v-15c0,-4.687 -3.813,-8.5 -8.5,-8.5Z"></path><path fill="#000" d="M7.812,7.469l-0.305,4.92c0.364,0.236 1.896,0.611 4.493,0.611c2.599,0 4.132,-0.376 4.493,-0.612l-0.306,-4.919c-0.016,-0.263 -0.235,-0.469 -0.499,-0.469h-7.376c-0.264,0 -0.483,0.206 -0.5,0.469Z"></path><path fill="#000" d="M20.386,24l-0.889,-1h-14.994l-0.889,1Z"></path><path fill="#000" d="M18.609,22l-0.922,-1.038c-0.058,0.024 -0.121,0.038 -0.187,0.038h-11c-0.066,0 -0.129,-0.014 -0.186,-0.038l-0.923,1.038h13.218Z"></path><path fill="#000" d="M7.371,4c-0.787,0 -1.444,0.615 -1.496,1.4l-0.876,13.133c0.209,0.363 2.934,1.467 7.001,1.467c4.067,0 6.792,-1.104 7.01,-1.555l-0.885,-13.045c-0.052,-0.785 -0.709,-1.4 -1.496,-1.4h-2.907c0.172,0.295 0.278,0.634 0.278,1c0,0.366 -0.106,0.705 -0.278,1h1.967c0.791,0 1.449,0.619 1.497,1.408l0.313,5.061c0.001,1.423 -4.209,1.531 -5.499,1.531c-1.29,0 -5.5,-0.108 -5.5,-1.5l0.314,-5.092c0.048,-0.789 0.707,-1.408 1.498,-1.408h1.967c-0.173,-0.295 -0.279,-0.634 -0.279,-1c0,-0.366 0.106,-0.705 0.278,-1h-2.907Zm9.129,11c0.827,0 1.5,0.673 1.5,1.5c0,0.827 -0.673,1.5 -1.5,1.5c-0.827,0 -1.5,-0.673 -1.5,-1.5c0,-0.827 0.673,-1.5 1.5,-1.5Zm-6,1h3c0.276,0 0.5,0.224 0.5,0.5c0,0.276 -0.224,0.5 -0.5,0.5h-3c-0.276,0 -0.5,-0.224 -0.5,-0.5c0,-0.276 0.224,-0.5 0.5,-0.5Zm-3,-1c0.827,0 1.5,0.673 1.5,1.5c0,0.827 -0.673,1.5 -1.5,1.5c-0.827,0 -1.5,-0.673 -1.5,-1.5c0,-0.827 0.673,-1.5 1.5,-1.5Z"></path></g></svg>