<svg height="384" viewBox="0 0 384 384" width="384" xmlns="http://www.w3.org/2000/svg"><path d="m11.5 4h-1.5v-3.5c0-.197-.115-.375-.295-.456-.179-.082-.39-.048-.537.083l-9 8c-.107.095-.168.231-.168.374s.061.279.168.374l9 8c.148.132.358.164.537.083s.295-.259.295-.456v-3.512c.049.001.097.003.146.004.117.004.235.007.354.007 4.178 0 8.5 2.244 8.5 6 0 1.383-.973 3.132-1.878 4.172-.158.181-.164.449-.015.638.098.124.244.19.393.19.079 0 .158-.019.231-.058 3.691-1.929 6.269-5.812 6.269-9.443 0-5.691-5.724-10.5-12.5-10.5zm7.771 17.714c.434-.888.73-1.844.73-2.713 0-4.382-4.83-7-9.5-7-.109 0-.216-.004-.323-.007-.117-.004-.232-.007-.347-.007-.127 0-.253.004-.378.016-.256.025-.452.241-.452.498v2.887l-7.748-6.887 7.748-6.887v2.887c0 .276.224.5.5.5h2c6.233 0 11.5 4.351 11.5 9.5 0 2.578-1.461 5.308-3.73 7.213z" transform="scale(16)"/></svg>