<svg xmlns="http://www.w3.org/2000/svg" viewBox="0 0 780.3 780.4" enable-background="new 0 0 780.3 780.4"><g id="layer1"><path id="path9848" class="st0" d="M618.222 328.495c-14.2 0-28 2.1-41 5.6l-25.6-56.5c-.2-.6-.8-1-1-1.5-2.6-7-9-12-16.8-12h-244l38.2-79.6h65c4.8 0 8.8-4.1 8.8-9v-27.9c0-5-4-9-8.8-9h-80.6l-.6.2c-7.2-.4-14 3.3-17.4 10.1l-86.4 180.3c-.2.7-.4 1.3-.4 2-14.6-4.4-29.8-6.8-45.6-6.8-86.4 0-156.6 70.1-156.6 156.6s70.2 156.6 156.6 156.6c86.6 0 156.6-70.1 156.6-156.6 0-54.6-28-102.6-70.4-130.7.4-.4.8-.8 1-1.3l18.8-39.2h248l19.4 42.7c-44.2 27.7-73.8 76.7-73.8 132.6 0 86.5 70.2 156.6 156.6 156.6 86.6 0 156.6-70.1 156.6-156.6 0-86.4-70-156.5-156.6-156.6zm-342.8 152.4c0 62.6-50.6 113.5-113.4 113.5-62.6 0-113.4-50.8-113.4-113.5 0-62.6 50.8-113.4 113.4-113.4 9.2 0 18.2 1.2 27 3.3l-47.6 101.8c-5.4 11.4-.4 25 11 30.4 11.2 5.4 25 .5 30.4-10.9l47.4-101.7c27.4 20.7 45.2 53.5 45.2 90.5zm342.8 117.7c-62.6 0-113.4-50.8-113.4-113.5 0-38.5 19.2-72.4 48.4-92.9l46.8 103.1c5 11.5 18.6 16.7 30.2 11.5 11.4-5.1 16.6-18.6 11.4-30.2l-46.4-102.6c7.4-1.6 15.2-2.4 23-2.4 62.8 0 113.6 50.8 113.6 113.5s-50.8 113.5-113.6 113.5"/><path id="path9850" class="st0" d="M600.222 203.395l-130.6-.8s-12 2.4-13.6 14.7c-1.6 12.3 11 17.4 11 17.4l82.6 10.9s40.2 6.4 50.6-42.2"/></g></svg>
