<?xml version="1.0" encoding="UTF-8"?><svg width="480" height="480" version="1.1" viewBox="0 0 480 480" xmlns="http://www.w3.org/2000/svg" xmlns:xlink="http://www.w3.org/1999/xlink"><!--Generated by IJSVG (https://github.com/curthard89/IJSVG)--><path d="M6,9h3c0.276,0 0.5,-0.224 0.5,-0.5c0,-0.276 -0.224,-0.5 -0.5,-0.5h-3c-0.276,0 -0.5,0.224 -0.5,0.5c0,0.276 0.224,0.5 0.5,0.5Zm14.5,1.025v-6.525c0,-1.378 -1.121,-2.5 -2.5,-2.5c-0.276,0 -0.5,0.224 -0.5,0.5c0,0.276 0.224,0.5 0.5,0.5c0.827,0 1.5,0.673 1.5,1.5c0,0.827 -0.673,1.5 -1.5,1.5c-0.276,0 -0.5,0.224 -0.5,0.5c0,0.276 0.224,0.5 0.5,0.5c0.565,0 1.081,-0.195 1.5,-0.513v1.54c-1.417,0.067 -2.772,0.4 -4.012,0.977c-0.057,0.001 -0.115,0.008 -0.171,0.03c-1.587,0.622 -3.499,0.785 -5.036,0.917c-2.118,0.181 -3.648,0.312 -3.778,1.493c-0.031,0.275 0.168,0.522 0.442,0.552c0.019,0.003 0.037,0.004 0.056,0.004c0.251,0 0.468,-0.189 0.496,-0.445c0.04,-0.364 1.743,-0.509 2.87,-0.606c0.784,-0.067 1.663,-0.144 2.558,-0.283c-2.688,2.29 -4.425,5.842 -4.425,9.834c0,1.884 -0.758,3.14 -1.656,3.974c-0.636,-0.889 -1.67,-1.474 -2.844,-1.474c-1.93,0 -3.5,1.57 -3.5,3.5c0,1.93 1.57,3.5 3.5,3.5c1.93,0 3.5,-1.57 3.5,-3.5c0,-0.391 -0.079,-0.762 -0.198,-1.113c1.163,-0.982 2.198,-2.519 2.198,-4.887c0,-6.156 4.443,-11.184 10,-11.472v1.998c-5.005,0.263 -9,4.405 -9,9.475c0,5.238 4.262,9.5 9.5,9.5c5.238,0 9.5,-4.262 9.5,-9.5c0,-5.07 -3.995,-9.213 -9,-9.476Zm-16.5,17.975c-1.379,0 -2.5,-1.122 -2.5,-2.5c0,-1.378 1.121,-2.5 2.5,-2.5c0.854,0 1.608,0.432 2.059,1.087c-1.053,0.687 -2.067,0.905 -2.154,0.923c-0.271,0.053 -0.448,0.315 -0.395,0.586c0.047,0.238 0.255,0.404 0.49,0.404c0.031,0 0.063,-0.003 0.095,-0.009c0.024,-0.005 1.142,-0.239 2.354,-0.992c0.033,0.162 0.051,0.33 0.051,0.501c0,1.378 -1.121,2.5 -2.5,2.5Zm24.475,-9h-5.525c-0.077,-0.454 -0.253,-0.872 -0.509,-1.233l3.904,-3.904c1.231,1.385 2.014,3.17 2.13,5.137Zm-7.975,-7.975c1.967,0.115 3.752,0.898 5.137,2.13l-3.904,3.904c-0.361,-0.257 -0.779,-0.433 -1.233,-0.509v-5.525Zm-1,0v5.525c-0.454,0.077 -0.873,0.253 -1.233,0.51l-3.904,-3.904c1.384,-1.232 3.17,-2.015 5.137,-2.131Zm-5.845,2.838l3.904,3.904c-0.257,0.361 -0.432,0.779 -0.509,1.232h-5.525c0.116,-1.965 0.898,-3.751 2.13,-5.136Zm-2.13,6.137h5.525c0.077,0.454 0.253,0.872 0.509,1.233l-3.904,3.904c-1.231,-1.385 -2.014,-3.17 -2.13,-5.137Zm7.975,7.975c-1.967,-0.115 -3.752,-0.898 -5.137,-2.13l3.904,-3.904c0.361,0.257 0.779,0.433 1.233,0.509v5.525Zm-1.5,-8.475c0,-0.929 0.64,-1.705 1.5,-1.929v1.929c0,0.276 0.224,0.5 0.5,0.5c0.276,0 0.5,-0.224 0.5,-0.5v-1.929c0.86,0.224 1.5,1 1.5,1.929c0,1.103 -0.897,2 -2,2c-1.103,0 -2,-0.897 -2,-2Zm2.5,8.475v-5.525c0.454,-0.077 0.872,-0.252 1.232,-0.509l3.904,3.904c-1.384,1.232 -3.17,2.014 -5.136,2.13Zm5.844,-2.837l-3.904,-3.904c0.257,-0.361 0.433,-0.779 0.51,-1.233h5.525c-0.116,1.966 -0.899,3.752 -2.131,5.137Z" transform="scale(16)" fill="#000"></path></svg>