<svg width="384" height="384" viewBox="0 0 384 384" xmlns="http://www.w3.org/2000/svg"><path d="M48 120c0-4.416-3.584-8-8-8-22.064 0-40 17.952-40 40v16c0 13.232 10.768 24 24 24h16c4.416 0 8-3.584 8-8s-3.584-8-8-8v-48c4.416 0 8-3.584 8-8zM344 112c-4.416 0-8 3.584-8 8s3.584 8 8 8v48c-4.416 0-8 3.584-8 8s3.584 8 8 8h16c13.232 0 24-10.768 24-24v-16c0-22.048-17.936-40-40-40zM136 336c-4.416 0-8 3.584-8 8h-48c0-4.416-3.584-8-8-8s-8 3.584-8 8v16c0 13.232 10.768 24 24 24h32c13.232 0 24-10.768 24-24v-16c0-4.416-3.584-8-8-8zM312 336c-4.416 0-8 3.584-8 8h-48c0-4.416-3.584-8-8-8s-8 3.584-8 8v16c0 13.232 10.768 24 24 24h32c13.232 0 24-10.768 24-24v-16c0-4.416-3.584-8-8-8zM312 0h-240c-22.064 0-40 17.952-40 40v272c0 22.048 17.936 40 40 40h240c22.064 0 40-17.952 40-40v-272c0-22.048-17.936-40-40-40zm-208 32h176c13.232 0 24 10.768 24 24s-10.768 24-24 24h-176c-13.232 0-24-10.768-24-24s10.768-24 24-24zm0 272c-13.232 0-24-10.768-24-24s10.768-24 24-24 24 10.768 24 24-10.768 24-24 24zm176 0c-13.232 0-24-10.768-24-24s10.768-24 24-24 24 10.768 24 24-10.768 24-24 24zm40-104c0 13.232-10.768 24-24 24h-208c-13.232 0-24-10.768-24-24v-80c0-13.232 10.768-24 24-24h208c13.232 0 24 10.768 24 24v80z"/></svg>
