<svg xmlns="http://www.w3.org/2000/svg" viewBox="0 0 769.4 769.4"><defs><style>.cls-1{fill:#3261bc;}.cls-2{fill:#fff;}</style></defs><title>bysykkel_big</title><circle class="cls-1" cx="384.7" cy="384.7" r="384.7"/><g id="layer1"><path id="path9848" class="cls-2" d="M560.25 344.23a117.81 117.81 0 0 0-30.58 4.17l-19.09-42.13c-.15-.45-.59-.75-.74-1.12a13.37 13.37 0 0 0-12.53-8.95h-182l28.49-59.36h48.47a6.69 6.69 0 0 0 6.56-6.71v-20.8a6.66 6.66 0 0 0-6.56-6.72h-60.1l-.45.15a13.52 13.52 0 0 0-13 7.54l-64.37 134.45a5.61 5.61 0 0 0-.29 1.49 116.87 116.87 0 1 0 30.27 14.24 3 3 0 0 0 .75-1l14-29.23h184.92l14.46 31.84a116.5 116.5 0 1 0 61.75-17.89zm-255.63 113.64a84.57 84.57 0 1 1-84.57-84.56 86.41 86.41 0 0 1 20.14 2.46l-35.5 75.91a17.06 17.06 0 0 0 30.87 14.55l35.35-75.84a84.42 84.42 0 0 1 33.71 67.48zm255.63 87.78a84.6 84.6 0 0 1-48.47-153.92l34.9 76.88a17 17 0 1 0 31-13.94l-34.6-76.51a81.15 81.15 0 0 1 17.15-1.79 84.64 84.64 0 1 1 0 169.28" transform="translate(-5.45 -5.5)"/><path id="path9850" class="cls-2" d="M541.38 245.44l-97.4-.6s-8.94 1.79-10.14 11l8.21 13 61.59 8.13s30 4.77 37.74-31.47"/></g></svg>