<?xml version="1.0" encoding="UTF-8"?><svg width="384" height="384" version="1.1" viewBox="0 0 384 384" xmlns="http://www.w3.org/2000/svg" xmlns:xlink="http://www.w3.org/1999/xlink"><!--Generated by IJSVG (https://github.com/curthard89/IJSVG)--><g transform="scale(16)"><path fill="#000" d="M0.5,10c-0.215,0 -0.413,-0.139 -0.479,-0.354c-0.08,-0.264 0.068,-0.543 0.333,-0.624l23,-7c0.267,-0.081 0.544,0.069 0.624,0.333c0.08,0.264 -0.068,0.543 -0.333,0.624l-23,7c-0.048,0.014 -0.097,0.021 -0.145,0.021Z"></path><path fill="#000" d="M20.547,12.424c-0.041,-0.798 -0.699,-1.424 -1.498,-1.424h-13.098c-0.799,0 -1.457,0.626 -1.498,1.425l-0.399,8c-0.021,0.415 0.125,0.809 0.411,1.109c0.286,0.3 0.672,0.466 1.086,0.466h4.449v-4h-3.5c-0.144,0 -0.28,-0.062 -0.375,-0.169c-0.095,-0.107 -0.139,-0.251 -0.121,-0.393l0.5,-4c0.031,-0.25 0.244,-0.438 0.496,-0.438h3.5h4h3.5c0.252,0 0.465,0.188 0.496,0.438l0.5,4c0.018,0.142 -0.026,0.286 -0.121,0.393c-0.095,0.107 -0.231,0.169 -0.375,0.169h-3.5v4h4.449c0.414,0 0.8,-0.166 1.086,-0.466c0.286,-0.3 0.432,-0.694 0.411,-1.109l-0.399,-8.001Z"></path><path fill="#000" d="M11,14h3v8h-3Z"></path><path fill="#000" d="M8.5,12c-0.276,0 -0.5,-0.223 -0.5,-0.5v-4c0,-0.276 0.224,-0.5 0.5,-0.5c0.276,0 0.5,0.224 0.5,0.5v4c0,0.277 -0.224,0.5 -0.5,0.5Z"></path><path fill="#000" d="M16.5,12c-0.276,0 -0.5,-0.224 -0.5,-0.5v-6.5c0,-0.276 0.224,-0.5 0.5,-0.5c0.276,0 0.5,0.224 0.5,0.5v6.5c0,0.277 -0.224,0.5 -0.5,0.5Z"></path><path fill="none" stroke="#000" stroke-linecap="round" stroke-linejoin="round" stroke-width="1" d="M16.8536,4.64645c0.195262,0.195262 0.195262,0.511845 0,0.707107c-0.195262,0.195262 -0.511845,0.195262 -0.707107,0c-0.195262,-0.195262 -0.195262,-0.511845 0,-0.707107c0.195262,-0.195262 0.511845,-0.195262 0.707107,0"></path><path fill="#000" d="M9.20711,6.79289c0.390524,0.390524 0.390524,1.02369 0,1.41421c-0.390524,0.390524 -1.02369,0.390524 -1.41421,0c-0.390524,-0.390524 -0.390524,-1.02369 0,-1.41421c0.390524,-0.390524 1.02369,-0.390524 1.41421,0"></path></g></svg>