<?xml version="1.0" encoding="UTF-8"?><svg width="384" height="384" version="1.1" viewBox="0 0 384 384" xmlns="http://www.w3.org/2000/svg" xmlns:xlink="http://www.w3.org/1999/xlink"><!--Generated by IJSVG (https://github.com/curthard89/IJSVG)--><g transform="scale(16)"><path fill="#000" d="M23.001,13.5c-0.082,0 -0.165,-0.02 -0.241,-0.063c-0.241,-0.132 -0.33,-0.436 -0.198,-0.678c0.004,-0.008 0.438,-0.816 0.438,-1.926c0,-1.746 -1.476,-3.167 -3.289,-3.167c-0.046,0 -0.089,0.007 -0.133,0.013l-0.146,0.017c-0.228,0.01 -0.436,-0.117 -0.512,-0.33c-0.722,-2.013 -2.689,-3.366 -4.894,-3.366c-1.965,0 -3.762,1.068 -4.578,2.721c-0.122,0.25 -0.426,0.347 -0.67,0.227c-0.247,-0.122 -0.348,-0.422 -0.226,-0.669c0.983,-1.992 3.132,-3.279 5.474,-3.279c2.492,0 4.731,1.458 5.692,3.667c2.362,0.003 4.282,1.872 4.282,4.166c0,1.379 -0.54,2.368 -0.563,2.409c-0.091,0.165 -0.261,0.258 -0.436,0.258Z"></path><path fill="#000" d="M18.5,21h-14c-2.481,0 -4.5,-2.019 -4.5,-4.5c0,-1.964 1.264,-3.674 3.113,-4.271c0.611,-3.574 3.729,-6.229 7.387,-6.229c2.869,0 5.46,1.623 6.722,4.169c0.444,-0.113 0.866,-0.169 1.278,-0.169c3.032,0 5.5,2.467 5.5,5.5c0,3.033 -2.468,5.5 -5.5,5.5Zm-8,-14c-3.267,0 -6.037,2.444 -6.443,5.685c-0.025,0.207 -0.177,0.375 -0.379,0.424c-1.576,0.381 -2.678,1.776 -2.678,3.391c0,1.93 1.57,3.5 3.5,3.5h14c2.481,0 4.5,-2.019 4.5,-4.5c0,-2.481 -2.019,-4.5 -4.5,-4.5c-0.436,0 -0.893,0.081 -1.397,0.246c-0.242,0.082 -0.514,-0.041 -0.615,-0.28c-1.022,-2.409 -3.372,-3.966 -5.988,-3.966Z"></path></g></svg>