<?xml version="1.0" encoding="UTF-8"?><svg width="384" height="384" version="1.1" viewBox="0 0 384 384" xmlns="http://www.w3.org/2000/svg" xmlns:xlink="http://www.w3.org/1999/xlink"><!--Generated by IJSVG (https://github.com/curthard89/IJSVG)--><g transform="scale(16)"><path fill="#000" d="M12,24c-0.116,0 -0.233,-0.041 -0.327,-0.122c-0.334,-0.288 -8.173,-7.16 -8.173,-15.378c0,-4.687 3.813,-8.5 8.5,-8.5c4.687,0 8.5,3.813 8.5,8.5c0,8.218 -7.839,15.09 -8.173,15.378c-0.094,0.081 -0.211,0.122 -0.327,0.122Zm0,-23c-4.136,0 -7.5,3.364 -7.5,7.5c0,6.842 6.016,12.926 7.5,14.322c1.483,-1.397 7.5,-7.488 7.5,-14.322c0,-4.136 -3.364,-7.5 -7.5,-7.5Z"></path><path fill="#000" d="M13.22,11h-2.44c-1.258,0 -2.28,-1.023 -2.28,-2.28c0,-0.188 0.022,-0.374 0.067,-0.554l0.947,-3.788c0.056,-0.222 0.257,-0.378 0.486,-0.378h4c0.229,0 0.43,0.156 0.485,0.379l0.947,3.788c0.045,0.18 0.067,0.366 0.067,0.553c0.001,1.257 -1.021,2.28 -2.279,2.28Zm-2.829,-6l-0.853,3.409c-0.025,0.1 -0.038,0.205 -0.038,0.31c0,0.706 0.574,1.281 1.28,1.281h2.439c0.706,0 1.28,-0.574 1.28,-1.28c0,-0.106 -0.013,-0.211 -0.038,-0.312l-0.852,-3.408h-3.218Z"></path><path fill="#000" d="M12,15c-0.276,0 -0.5,-0.224 -0.5,-0.5v-4c0,-0.276 0.224,-0.5 0.5,-0.5c0.276,0 0.5,0.224 0.5,0.5v4c0,0.276 -0.224,0.5 -0.5,0.5Z"></path><path fill="#000" d="M14.5,15h-5c-0.276,0 -0.5,-0.224 -0.5,-0.5c0,-0.276 0.224,-0.5 0.5,-0.5h5c0.276,0 0.5,0.224 0.5,0.5c0,0.276 -0.224,0.5 -0.5,0.5Z"></path></g></svg>