<svg width="384" height="384" viewBox="0 0 384 384" xmlns="http://www.w3.org/2000/svg"><path d="M324.288 223.024l-24.976 24.976h83.504c.704-7.52 1.184-15.616 1.184-24 0-2.8-.192-5.36-.336-8h-42.416c-6.304 0-12.496 2.56-16.96 7.024zM147.744 248h88.512l26.672-32h-141.856zM59.712 223.024c-4.464-4.464-10.656-7.024-16.96-7.024h-42.416c-.144 2.64-.336 5.2-.336 8 0 8.384.48 16.48 1.184 24h83.504l-24.976-24.976zM280 264c-3.232 0-6.16-1.952-7.392-4.944-1.232-2.992-.544-6.432 1.728-8.72l38.624-38.624c7.568-7.552 17.6-11.712 28.288-11.712h40.672c-4.256-22.24-15.264-37.184-34.224-47.088-22.048-11.536-71.536-16.912-155.696-16.912s-133.648 5.376-155.696 16.912c-18.96 9.904-29.968 24.848-34.224 47.088h40.672c10.688 0 20.72 4.16 28.288 11.712l38.624 38.624c2.288 2.288 2.976 5.728 1.728 8.72-1.248 2.992-4.16 4.944-7.392 4.944h-100.832c2.256 15.024 4.912 25.344 5.104 26.064.928 3.504 4.096 5.936 7.728 5.936h70.112l30.32 15.152c1.104.56 2.336.848 3.568.848h144c1.232 0 2.464-.288 3.584-.848l30.32-15.152h70.096c3.632 0 6.8-2.432 7.728-5.936.192-.72 2.848-11.04 5.104-26.064h-100.832zm-33.856-2.88c-1.52 1.824-3.776 2.88-6.144 2.88h-96c-2.368 0-4.624-1.056-6.144-2.88l-40-48c-2-2.384-2.416-5.712-1.104-8.512 1.328-2.816 4.144-4.608 7.248-4.608h176c3.104 0 5.92 1.792 7.248 4.608 1.312 2.8.896 6.128-1.104 8.512l-40 48zM344 168c-3.072 0-6.032-1.792-7.344-4.816-18.064-41.6-40.16-87.792-45.872-93.12-6.128-5.2-32.192-14.064-90.784-14.064h-16c-58.592 0-84.656 8.864-90.816 14.096-5.68 5.296-27.776 51.504-45.84 93.088-1.76 4.064-6.496 5.904-10.528 4.144-4.048-1.76-5.904-6.464-4.16-10.528 9.088-20.928 39.568-89.904 50.16-98.912 13.2-11.2 51.008-17.888 101.184-17.888h16c50.176 0 87.984 6.688 101.184 17.904 10.592 9.008 41.056 77.984 50.16 98.912 1.744 4.048-.112 8.768-4.16 10.528-1.024.448-2.128.656-3.184.656zM104 288c-4.144 0-7.424 3.184-7.84 7.216l-64.16-6.416v-.8c0-4.416-3.584-8-8-8s-8 3.584-8 8v32c0 13.232 10.768 24 24 24h48c13.232 0 24-10.768 24-24v-24c0-4.416-3.584-8-8-8zM360 280c-4.416 0-8 3.584-8 8v.8l-64.16 6.416c-.416-4.032-3.696-7.216-7.84-7.216-4.416 0-8 3.584-8 8v24c0 13.232 10.768 24 24 24h48c13.232 0 24-10.768 24-24v-32c0-4.416-3.584-8-8-8z"/></svg>