<?xml version="1.0" encoding="UTF-8"?><svg width="384" height="384" version="1.1" viewBox="0 0 384 384" xmlns="http://www.w3.org/2000/svg" xmlns:xlink="http://www.w3.org/1999/xlink"><!--Generated by IJSVG (https://github.com/curthard89/IJSVG)--><g transform="scale(16)"><path fill="#000" d="M20.268,13.939l-1.561,1.561h5.219c0.044,-0.47 0.074,-0.976 0.074,-1.5c0,-0.175 -0.012,-0.335 -0.021,-0.5h-2.651c-0.394,0 -0.781,0.16 -1.06,0.439Z"></path><path fill="#000" d="M9.234,15.5h5.532l1.667,-2h-8.866Z"></path><path fill="#000" d="M3.732,13.939c-0.279,-0.279 -0.666,-0.439 -1.06,-0.439h-2.651c-0.009,0.165 -0.021,0.325 -0.021,0.5c0,0.524 0.03,1.03 0.074,1.5h5.219l-1.561,-1.561Z"></path><path fill="#000" d="M17.5,16.5c-0.202,0 -0.385,-0.122 -0.462,-0.309c-0.077,-0.187 -0.034,-0.402 0.108,-0.545l2.414,-2.414c0.473,-0.472 1.1,-0.732 1.768,-0.732h2.542c-0.266,-1.39 -0.954,-2.324 -2.139,-2.943c-1.378,-0.721 -4.471,-1.057 -9.731,-1.057c-5.26,0 -8.353,0.336 -9.731,1.057c-1.185,0.619 -1.873,1.553 -2.139,2.943h2.542c0.668,0 1.295,0.26 1.768,0.732l2.414,2.414c0.143,0.143 0.186,0.358 0.108,0.545c-0.078,0.187 -0.26,0.309 -0.462,0.309h-6.302c0.141,0.939 0.307,1.584 0.319,1.629c0.058,0.219 0.256,0.371 0.483,0.371h4.382l1.895,0.947c0.069,0.035 0.146,0.053 0.223,0.053h9c0.077,0 0.154,-0.018 0.224,-0.053l1.895,-0.947h4.381c0.227,0 0.425,-0.152 0.483,-0.371c0.012,-0.045 0.178,-0.69 0.319,-1.629h-6.302Zm-2.116,-0.18c-0.095,0.114 -0.236,0.18 -0.384,0.18h-6c-0.148,0 -0.289,-0.066 -0.384,-0.18l-2.5,-3c-0.125,-0.149 -0.151,-0.357 -0.069,-0.532c0.083,-0.176 0.259,-0.288 0.453,-0.288h11c0.194,0 0.37,0.112 0.453,0.288c0.082,0.175 0.056,0.383 -0.069,0.532l-2.5,3Z"></path><path fill="#000" d="M21.5,10.5c-0.192,0 -0.377,-0.112 -0.459,-0.301c-1.129,-2.6 -2.51,-5.487 -2.867,-5.82c-0.383,-0.325 -2.012,-0.879 -5.674,-0.879h-1c-3.662,0 -5.291,0.554 -5.676,0.881c-0.355,0.331 -1.736,3.219 -2.865,5.818c-0.11,0.254 -0.406,0.369 -0.658,0.259c-0.253,-0.11 -0.369,-0.404 -0.26,-0.658c0.568,-1.308 2.473,-5.619 3.135,-6.182c0.825,-0.7 3.188,-1.118 6.324,-1.118h1c3.136,0 5.499,0.418 6.324,1.119c0.662,0.563 2.566,4.874 3.135,6.182c0.109,0.253 -0.007,0.548 -0.26,0.658c-0.064,0.028 -0.133,0.041 -0.199,0.041Z"></path><path fill="#000" d="M6.5,18c-0.259,0 -0.464,0.199 -0.49,0.451l-4.01,-0.401v-0.05c0,-0.276 -0.224,-0.5 -0.5,-0.5c-0.276,0 -0.5,0.224 -0.5,0.5v2c0,0.827 0.673,1.5 1.5,1.5h3c0.827,0 1.5,-0.673 1.5,-1.5v-1.5c0,-0.276 -0.224,-0.5 -0.5,-0.5Z"></path><path fill="#000" d="M22.5,17.5c-0.276,0 -0.5,0.224 -0.5,0.5v0.05l-4.01,0.401c-0.026,-0.252 -0.231,-0.451 -0.49,-0.451c-0.276,0 -0.5,0.224 -0.5,0.5v1.5c0,0.827 0.673,1.5 1.5,1.5h3c0.827,0 1.5,-0.673 1.5,-1.5v-2c0,-0.276 -0.224,-0.5 -0.5,-0.5Z"></path></g></svg>