<?xml version="1.0" encoding="UTF-8"?><svg width="384" height="384" version="1.1" viewBox="0 0 384 384" xmlns="http://www.w3.org/2000/svg" xmlns:xlink="http://www.w3.org/1999/xlink"><!--Generated by IJSVG (https://github.com/curthard89/IJSVG)--><g transform="scale(16)"><path fill="#000" d="M19,18c-1.654,0 -3,-1.346 -3,-3c0,-1.654 1.346,-3 3,-3c1.654,0 3,1.346 3,3c0,1.654 -1.346,3 -3,3Zm0,-5c-1.103,0 -2,0.897 -2,2c0,1.103 0.897,2 2,2c1.103,0 2,-0.897 2,-2c0,-1.103 -0.897,-2 -2,-2Z"></path><path fill="#000" d="M18.682,9.002c-0.732,-0.584 -4.075,-3.002 -9.182,-3.002c-0.966,0 -3.431,0.099 -5.652,1h-2.348c-0.202,0 -0.385,0.122 -0.462,0.309c-0.078,0.187 -0.035,0.401 0.108,0.545l0.488,0.488c-1.085,0.974 -1.634,2.202 -1.634,3.658c0,1.717 0.155,4 1.5,4h0.211c-0.134,-0.307 -0.211,-0.644 -0.211,-1c0,-1.381 1.119,-2.5 2.5,-2.5c1.381,0 2.5,1.119 2.5,2.5c0,0.356 -0.077,0.693 -0.211,1h10.422c-0.134,-0.307 -0.211,-0.644 -0.211,-1c0,-1.381 1.119,-2.5 2.5,-2.5c1.381,0 2.5,1.119 2.5,2.5c0,0.356 -0.077,0.693 -0.211,1h1.211c0.604,0 1.5,-0.63 1.5,-1.5v-2c0,-0.948 -1.637,-3.419 -5.318,-3.498Zm-3.182,1.998h-5c-0.276,0 -0.5,-0.224 -0.5,-0.5v-2c0,-0.276 0.224,-0.5 0.5,-0.5c0.276,0 0.5,0.224 0.5,0.5v1.5h4.5c0.276,0 0.5,0.224 0.5,0.5c0,0.276 -0.224,0.5 -0.5,0.5Z"></path><path fill="#000" d="M4,18c-1.654,0 -3,-1.346 -3,-3c0,-1.654 1.346,-3 3,-3c1.654,0 3,1.346 3,3c0,1.654 -1.346,3 -3,3Zm0,-5c-1.103,0 -2,0.897 -2,2c0,1.103 0.897,2 2,2c1.103,0 2,-0.897 2,-2c0,-1.103 -0.897,-2 -2,-2Z"></path></g></svg>