<?xml version="1.0" encoding="utf-8"?>
<!-- Generator: Adobe Illustrator 22.1.0, SVG Export Plug-In . SVG Version: 6.00 Build 0)  -->
<svg version="1.1" id="Layer_1" xmlns="http://www.w3.org/2000/svg" xmlns:xlink="http://www.w3.org/1999/xlink" x="0px" y="0px"
	 viewBox="0 0 100 100" style="enable-background:new 0 0 100 100;" xml:space="preserve">
<path d="M97.6,53.6c0,0-0.2,6.4-0.7,10.8c-0.5,4.4-2,12.4-2,12.4s-0.7,1.9-6.3,2.5c-5.6,0.6-27.2,1.5-38.7,1.5
	c-11.5,0-33.1-1-38.7-1.5C5.7,78.7,5,76.8,5,76.8s-1.5-8-2-12.4C2.5,60,2.4,53.6,2.4,53.6s0.5-6.2,0.6-6.9C3.1,46,7.1,42.1,8,41.4
	c1-0.7,4.4-1.9,4.4-1.9l0.3-1.3l-1.5-1l-0.9,0c0,0-1.4,0.9-3.4,0.9c-2,0-2.9-0.1-3.6-0.5c-0.7-0.4-0.8-1.5-0.8-2.2s-0.1-0.8,0.2-1.6
	C3.1,33.1,4.4,33,6.2,33s2.8,0.2,3.3,0.7c0.6,0.5,0.9,0.9,0.9,0.9h0.9l0.1-0.3l3.2,0.2c0,0,1-1.4,2-1.9c1-0.5,2.5-0.5,2.5-0.5
	s3-4.3,4.1-6.2c1.1-1.9,2.5-3.2,3.5-4c1-0.8,6.2-2.7,23.5-2.7s22.5,1.9,23.5,2.7c1,0.8,2.4,2.2,3.5,4c1.1,1.9,4.1,6.2,4.1,6.2
	s1.4,0,2.5,0.5c1,0.5,2,1.9,2,1.9l3.2-0.2l0.1,0.3h0.9c0,0,0.3-0.4,0.9-0.9c0.6-0.5,1.5-0.7,3.3-0.7c1.9,0,3.1,0.1,3.4,0.8
	c0.3,0.8,0.2,0.9,0.2,1.6c0,0.7-0.1,1.9-0.8,2.2C95.9,38,95,38.2,93,38.2c-2,0-3.4-0.9-3.4-0.9l-0.9,0l-1.5,1l0.3,1.3
	c0,0,3.4,1.2,4.4,1.9c1,0.7,4.9,4.6,5.1,5.3C97.2,47.4,97.6,53.6,97.6,53.6z M72.4,54.1c0,2.4,1.2,3.1,3.5,2.6
	c2.3-0.5,4.9-1.1,8.3-1.7c3.4-0.6,4.3-2.7,5.2-4.5c0.8-1.8,1.4-4.1,1.4-5.2s-4.4-0.8-8.2,0c-3.7,0.8-8.8,2.5-8.8,2.5
	C73,49,72.4,51.7,72.4,54.1z M25.7,47.9c0,0-5-1.7-8.8-2.5s-8.2-1.1-8.2,0c0,1.1,0.6,3.4,1.4,5.2c0.8,1.8,1.8,3.9,5.2,4.5
	c3.4,0.6,6,1.2,8.3,1.7c2.3,0.5,3.5-0.2,3.5-2.6C27.1,51.7,26.5,49,25.7,47.9z M75.9,66.5c-2.9-1.9-10.1-1-25.9-1s-23-1-25.9,1
	c-2.9,1.9-5.1,3-3.7,5.9c1.4,2.9,3.2,3.5,11,4.2c7.8,0.6,9.4,0.6,18.5,0.6s10.7,0,18.5-0.6c7.8-0.6,9.6-1.3,11-4.2
	C81,69.6,78.8,68.4,75.9,66.5z M77.1,29.1c-1.9-1.9-1.8-2.8-6.7-3.8c-4.9-1.1-8.4-1.4-20.4-1.4c-12,0-15.5,0.4-20.4,1.4
	c-4.9,1.1-4.9,2-6.7,3.8c-1.9,1.9-5.6,11.1-5.6,11.1s1.6,0.8,4.9,0.6c3.4-0.2,21.8,1.4,27.8,1.3c6,0.1,24.5-1.6,27.8-1.3
	c3.4,0.2,4.9-0.6,4.9-0.6S78.9,30.9,77.1,29.1z"/>
</svg>
