<?xml version="1.0" encoding="UTF-8"?><svg width="384" height="384" version="1.1" viewBox="0 0 384 384" xmlns="http://www.w3.org/2000/svg" xmlns:xlink="http://www.w3.org/1999/xlink"><!--Generated by IJSVG (https://github.com/curthard89/IJSVG)--><g transform="scale(16)"><path fill="#000" d="M17.5,3h-11c-0.827,0 -1.5,-0.673 -1.5,-1.5c0,-0.827 0.673,-1.5 1.5,-1.5h11c0.827,0 1.5,0.673 1.5,1.5c0,0.827 -0.673,1.5 -1.5,1.5Zm-11,-2c-0.276,0 -0.5,0.224 -0.5,0.5c0,0.276 0.224,0.5 0.5,0.5h11c0.276,0 0.5,-0.224 0.5,-0.5c0,-0.276 -0.224,-0.5 -0.5,-0.5h-11Z"></path><path fill="#000" d="M17.5,24h-11c-0.827,0 -1.5,-0.673 -1.5,-1.5c0,-0.827 0.673,-1.5 1.5,-1.5h11c0.827,0 1.5,0.673 1.5,1.5c0,0.827 -0.673,1.5 -1.5,1.5Zm-11,-2c-0.276,0 -0.5,0.224 -0.5,0.5c0,0.276 0.224,0.5 0.5,0.5h11c0.276,0 0.5,-0.224 0.5,-0.5c0,-0.276 -0.224,-0.5 -0.5,-0.5h-11Z"></path><path fill="#000" d="M6.5,22c-0.276,0 -0.5,-0.224 -0.5,-0.5v-4.185c0,-1.297 0.56,-2.532 1.537,-3.387l1.774,-1.552c0.11,-0.096 0.17,-0.229 0.17,-0.376c0,-0.147 -0.061,-0.28 -0.171,-0.376l-1.773,-1.552c-0.977,-0.855 -1.537,-2.09 -1.537,-3.387v-4.185c0,-0.276 0.224,-0.5 0.5,-0.5c0.276,0 0.5,0.224 0.5,0.5v4.185c0,1.009 0.436,1.969 1.195,2.634l1.774,1.552c0.326,0.285 0.512,0.696 0.512,1.129c0,0.433 -0.187,0.844 -0.512,1.128l-1.774,1.553c-0.759,0.665 -1.195,1.625 -1.195,2.634v4.185c0,0.276 -0.224,0.5 -0.5,0.5Z"></path><path fill="#000" d="M17.5,22c-0.276,0 -0.5,-0.224 -0.5,-0.5v-4.185c0,-1.009 -0.436,-1.969 -1.195,-2.634l-1.774,-1.552c-0.326,-0.285 -0.512,-0.696 -0.512,-1.129c0,-0.433 0.187,-0.844 0.512,-1.128l1.774,-1.553c0.759,-0.665 1.195,-1.625 1.195,-2.634v-4.185c0,-0.276 0.224,-0.5 0.5,-0.5c0.276,0 0.5,0.224 0.5,0.5v4.185c0,1.297 -0.56,2.532 -1.537,3.387l-1.774,1.552c-0.11,0.096 -0.17,0.229 -0.17,0.376c0,0.147 0.061,0.28 0.171,0.376l1.773,1.552c0.977,0.855 1.537,2.09 1.537,3.387v4.185c0,0.276 -0.224,0.5 -0.5,0.5Z"></path><path fill="#000" d="M12,11.5c-0.128,0 -0.256,-0.049 -0.354,-0.146l-2.5,-2.5c-0.143,-0.144 -0.186,-0.358 -0.108,-0.545c0.077,-0.187 0.26,-0.309 0.462,-0.309h5c0.202,0 0.385,0.122 0.462,0.309c0.078,0.187 0.035,0.402 -0.108,0.545l-2.5,2.5c-0.098,0.097 -0.226,0.146 -0.354,0.146Zm-1.293,-2.5l1.293,1.293l1.293,-1.293h-2.586Z"></path><path fill="#000" d="M17.5,21.5c-0.12,0 -0.241,-0.043 -0.336,-0.13l-5.147,-4.68l-4.663,4.663c-0.195,0.195 -0.512,0.195 -0.707,0c-0.195,-0.195 -0.195,-0.512 0,-0.707l5,-5c0.188,-0.189 0.492,-0.196 0.69,-0.017l5.5,5c0.204,0.186 0.219,0.502 0.034,0.707c-0.1,0.109 -0.235,0.164 -0.371,0.164Z"></path></g></svg>