<svg width="384" height="384" viewBox="0 0 384 384" xmlns="http://www.w3.org/2000/svg"><path d="M280 336h-176c-13.232 0-24 10.768-24 24s10.768 24 24 24h176c13.232 0 24-10.768 24-24s-10.768-24-24-24zM104 352c-4.416 0-8-3.584-8-8v-66.96c0-20.752 8.96-40.512 24.592-54.192l28.384-24.832c1.76-1.536 2.72-3.664 2.72-6.016s-.976-4.48-2.736-6.016l-28.368-24.832c-15.632-13.68-24.592-33.44-24.592-54.192v-66.96c0-4.416 3.584-8 8-8s8 3.584 8 8v66.96c0 16.144 6.976 31.504 19.12 42.144l28.384 24.832c5.216 4.56 8.192 11.136 8.192 18.064 0 6.928-2.992 13.504-8.192 18.048l-28.384 24.848c-12.144 10.64-19.12 26-19.12 42.144v66.96c0 4.416-3.584 8-8 8zM280 352c-4.416 0-8-3.584-8-8v-66.96c0-16.144-6.976-31.504-19.12-42.144l-28.384-24.832c-5.216-4.56-8.192-11.136-8.192-18.064 0-6.928 2.992-13.504 8.192-18.048l28.384-24.848c12.144-10.64 19.12-26 19.12-42.144v-66.96c0-4.416 3.584-8 8-8s8 3.584 8 8v66.96c0 20.752-8.96 40.512-24.592 54.192l-28.384 24.832c-1.76 1.536-2.72 3.664-2.72 6.016s.976 4.48 2.736 6.016l28.368 24.832c15.632 13.68 24.592 33.44 24.592 54.192v66.96c0 4.416-3.584 8-8 8zM280 0h-176c-13.232 0-24 10.768-24 24s10.768 24 24 24h176c13.232 0 24-10.768 24-24s-10.768-24-24-24zM192 184c2.048 0 4.096-.784 5.664-2.336l40-40c2.288-2.288 2.976-5.728 1.728-8.72-1.232-2.992-4.16-4.944-7.392-4.944h-80c-3.232 0-6.16 1.952-7.392 4.944-1.248 2.992-.56 6.416 1.728 8.72l40 40c1.568 1.552 3.616 2.336 5.664 2.336zM197.376 250.08c-3.168-2.864-8.032-2.768-11.04.272l-80 80c-3.12 3.12-3.12 8.192 0 11.312 3.12 3.12 8.192 3.12 11.312 0l5.664-5.664h144.784l6.512 5.92c1.536 1.392 3.456 2.08 5.376 2.08 2.176 0 4.336-.88 5.92-2.624 2.976-3.28 2.72-8.336-.544-11.312l-87.984-79.984z"/></svg>