<?xml version="1.0" encoding="UTF-8"?><svg width="384" height="384" version="1.1" viewBox="0 0 384 384" xmlns="http://www.w3.org/2000/svg" xmlns:xlink="http://www.w3.org/1999/xlink"><!--Generated by IJSVG (https://github.com/curthard89/IJSVG)--><g transform="scale(16)"><path fill="#000" d="M2.5,17.5h-1c-0.827,0 -1.5,-0.673 -1.5,-1.5v-8c0,-0.827 0.673,-1.5 1.5,-1.5h1c0.827,0 1.5,0.673 1.5,1.5v8c0,0.827 -0.673,1.5 -1.5,1.5Zm-1,-10c-0.276,0 -0.5,0.224 -0.5,0.5v8c0,0.276 0.224,0.5 0.5,0.5h1c0.276,0 0.5,-0.224 0.5,-0.5v-8c0,-0.276 -0.224,-0.5 -0.5,-0.5h-1Z"></path><path fill="#000" d="M5.5,20.5h-1c-0.827,0 -1.5,-0.673 -1.5,-1.5v-14c0,-0.827 0.673,-1.5 1.5,-1.5h1c0.827,0 1.5,0.673 1.5,1.5v14c0,0.827 -0.673,1.5 -1.5,1.5Zm-1,-16c-0.276,0 -0.5,0.224 -0.5,0.5v14c0,0.276 0.224,0.5 0.5,0.5h1c0.276,0 0.5,-0.224 0.5,-0.5v-14c0,-0.276 -0.224,-0.5 -0.5,-0.5h-1Z"></path><path fill="#000" d="M22.5,17.5h-1c-0.827,0 -1.5,-0.673 -1.5,-1.5v-8c0,-0.827 0.673,-1.5 1.5,-1.5h1c0.827,0 1.5,0.673 1.5,1.5v8c0,0.827 -0.673,1.5 -1.5,1.5Zm-1,-10c-0.276,0 -0.5,0.224 -0.5,0.5v8c0,0.276 0.224,0.5 0.5,0.5h1c0.276,0 0.5,-0.224 0.5,-0.5v-8c0,-0.276 -0.224,-0.5 -0.5,-0.5h-1Z"></path><path fill="#000" d="M19.5,20.5h-1c-0.827,0 -1.5,-0.673 -1.5,-1.5v-14c0,-0.827 0.673,-1.5 1.5,-1.5h1c0.827,0 1.5,0.673 1.5,1.5v14c0,0.827 -0.673,1.5 -1.5,1.5Zm-1,-16c-0.276,0 -0.5,0.224 -0.5,0.5v14c0,0.276 0.224,0.5 0.5,0.5h1c0.276,0 0.5,-0.224 0.5,-0.5v-14c0,-0.276 -0.224,-0.5 -0.5,-0.5h-1Z"></path><path fill="#000" d="M17.5,13.5h-11c-0.276,0 -0.5,-0.224 -0.5,-0.5v-2c0,-0.276 0.224,-0.5 0.5,-0.5h11c0.276,0 0.5,0.224 0.5,0.5v2c0,0.276 -0.224,0.5 -0.5,0.5Zm-10.5,-1h10v-1h-10v1Z"></path></g></svg>