<?xml version="1.0" encoding="utf-8"?>
<!-- Generator: Adobe Illustrator 22.1.0, SVG Export Plug-In . SVG Version: 6.00 Build 0)  -->
<svg version="1.1" id="Layer_1" xmlns="http://www.w3.org/2000/svg" xmlns:xlink="http://www.w3.org/1999/xlink" x="0px" y="0px"
	 viewBox="0 0 384 384" style="enable-background:new 0 0 384 384;" xml:space="preserve">
<g transform="scale(16)">
	<g>
		<path d="M18,19.5H5.1c-2.6,0-4.7-2.1-4.7-4.7c0-2,1.1-3.7,2.9-4.4c0.4-1.6,1.2-3,2.5-4.1c1.3-1.1,3.1-1.8,4.9-1.8
			c1.4,0,2.8,0.4,4,1.1c1,0.6,1.9,1.5,2.5,2.6c0.3-0.1,0.6-0.1,0.9-0.1c1.4,0,2.9,0.6,4,1.7c1.1,1.1,1.7,2.5,1.7,4
			C23.6,17,21.1,19.5,18,19.5z M10.6,5.8c-1.5,0-2.9,0.5-4,1.5C5.4,8.2,4.7,9.6,4.4,11l-0.1,0.4L4,11.5c-1.4,0.4-2.4,1.8-2.4,3.3
			c0,1.9,1.6,3.5,3.5,3.5H18c2.4,0,4.4-2,4.4-4.4c0-2.4-2-4.5-4.4-4.5c-0.3,0-0.7,0.1-1,0.2l-0.5,0.1l-0.2-0.4
			C15.1,7.1,13,5.8,10.6,5.8z"/>
	</g>
</g>
</svg>
