<?xml version="1.0" encoding="UTF-8"?><svg width="384" height="384" version="1.1" viewBox="0 0 384 384" xmlns="http://www.w3.org/2000/svg" xmlns:xlink="http://www.w3.org/1999/xlink"><!--Generated by IJSVG (https://github.com/curthard89/IJSVG)--><g transform="scale(16)"><path fill="#000" d="M12,24c-0.117,0 -0.233,-0.041 -0.327,-0.122c-0.334,-0.288 -8.173,-7.16 -8.173,-15.378c0,-4.687 3.813,-8.5 8.5,-8.5c4.687,0 8.5,3.813 8.5,8.5c0,8.218 -7.839,15.09 -8.173,15.378c-0.094,0.081 -0.21,0.122 -0.327,0.122Zm0,-23c-4.136,0 -7.5,3.364 -7.5,7.5c0,6.842 6.016,12.926 7.5,14.322c1.483,-1.397 7.5,-7.488 7.5,-14.322c0,-4.136 -3.364,-7.5 -7.5,-7.5Z"></path><path fill="#000" d="M13,11c-0.276,0 -0.5,-0.224 -0.5,-0.5v-4.793l-0.5,-0.5l-0.5,0.5v4.793c0,0.276 -0.224,0.5 -0.5,0.5c-0.276,0 -0.5,-0.224 -0.5,-0.5v-5c0,-0.133 0.053,-0.26 0.146,-0.354l1,-1c0.195,-0.195 0.512,-0.195 0.707,0l1,1c0.094,0.094 0.147,0.221 0.147,0.354v5c0,0.276 -0.224,0.5 -0.5,0.5Z"></path><path fill="#000" d="M14,13c-0.276,0 -0.5,-0.224 -0.5,-0.5v-1.5h-3v1.5c0,0.276 -0.224,0.5 -0.5,0.5c-0.276,0 -0.5,-0.224 -0.5,-0.5v-2c0,-0.276 0.224,-0.5 0.5,-0.5h4c0.276,0 0.5,0.224 0.5,0.5v2c0,0.276 -0.224,0.5 -0.5,0.5Z"></path><path fill="#000" d="M15,13h-6c-0.276,0 -0.5,-0.224 -0.5,-0.5c0,-0.276 0.224,-0.5 0.5,-0.5h6c0.276,0 0.5,0.224 0.5,0.5c0,0.276 -0.224,0.5 -0.5,0.5Z"></path></g></svg>