<svg height="384" viewBox="0 0 384 384" width="384" xmlns="http://www.w3.org/2000/svg"><g transform="scale(16)"><path d="m20.5 12c-.276 0-.5-.224-.5-.5 0-3.033-2.467-5.5-5.5-5.5-1.139 0-3.007.597-3.55 1.718-.12.249-.42.352-.668.232-.249-.12-.352-.42-.232-.668.806-1.662 3.157-2.282 4.45-2.282 3.584 0 6.5 2.916 6.5 6.5 0 .276-.224.5-.5.5z"/><path d="m14.5 4c-.276 0-.5-.224-.5-.5v-1c0-.276.224-.5.5-.5s.5.224.5.5v1c0 .276-.224.5-.5.5z"/><path d="m8.843 6.343c-.128 0-.256-.049-.354-.146l-.706-.707c-.195-.195-.195-.512 0-.707s.512-.195.707 0l.707.707c.195.195.195.512 0 .707-.098.097-.226.146-.354.146z"/><path d="m23.5 12h-1c-.276 0-.5-.224-.5-.5s.224-.5.5-.5h1c.276 0 .5.224.5.5s-.224.5-.5.5z"/><path d="m20.157 6.343c-.128 0-.256-.049-.354-.146-.195-.195-.195-.512 0-.707l.707-.707c.195-.195.512-.195.707 0s.195.512 0 .707l-.707.707c-.097.097-.225.146-.353.146z"/><path d="m18.5 22h-14c-2.481 0-4.5-2.019-4.5-4.5 0-1.964 1.264-3.674 3.113-4.271.611-3.574 3.729-6.229 7.387-6.229 2.869 0 5.46 1.623 6.722 4.169.444-.113.865-.169 1.278-.169 3.033 0 5.5 2.467 5.5 5.5s-2.467 5.5-5.5 5.5zm-8-14c-3.267 0-6.037 2.444-6.443 5.685-.026.207-.177.375-.378.424-1.578.381-2.679 1.776-2.679 3.391 0 1.93 1.57 3.5 3.5 3.5h14c2.481 0 4.5-2.019 4.5-4.5s-2.019-4.5-4.5-4.5c-.436 0-.893.081-1.396.246-.248.081-.515-.041-.616-.28-1.022-2.409-3.372-3.966-5.988-3.966z"/></g></svg>