<svg width="384" height="384" viewBox="0 0 384 384" xmlns="http://www.w3.org/2000/svg"><path fill="#ffffff" d="M232 64c4.416 0 8-3.584 8-8v-16c0-4.416-3.584-8-8-8s-8 3.584-8 8v16c0 4.416 3.584 8 8 8zM135.84 99.152c1.568 1.568 3.616 2.336 5.664 2.336 2.048 0 4.096-.784 5.664-2.336 3.12-3.12 3.12-8.192 0-11.312l-11.328-11.312c-3.12-3.12-8.192-3.12-11.312 0-3.12 3.12-3.12 8.192 0 11.312l11.312 11.312zM360 192h16c4.416 0 8-3.584 8-8s-3.584-8-8-8h-16c-4.416 0-8 3.584-8 8s3.584 8 8 8zM322.512 101.488c2.048 0 4.096-.784 5.664-2.336l11.312-11.312c3.12-3.12 3.12-8.192 0-11.312-3.12-3.12-8.192-3.12-11.312 0l-11.328 11.312c-3.12 3.12-3.12 8.192 0 11.312 1.568 1.552 3.616 2.336 5.664 2.336zM202.592 100.512c32.336 8.464 60.304 28.448 78.736 56.24 1.616 2.416 4.416 3.712 7.312 3.552 10.896-.896 21.824.176 33.104 3.056.656.176 1.328.256 1.984.256h.16c4.624.304 8.16-3.52 8.16-8 0-1.648-.496-3.168-1.344-4.432-14.144-42.672-53.552-71.184-98.704-71.184-9.04 0-19.648 1.84-29.856 5.152-3.376 1.104-5.632 4.304-5.52 7.84.112 3.552 2.544 6.608 5.968 7.52zM296 176c-6.608 0-13.344.896-20.448 2.704-20.192-40.736-61.648-66.704-107.552-66.704-58.528 0-108.416 42.48-118.192 99.664-29.584 9.552-49.808 36.912-49.808 68.336 0 39.696 32.304 72 72 72h224c48.528 0 88-39.472 88-88s-39.472-88-88-88z"/></svg>
