<svg xmlns="http://www.w3.org/2000/svg" viewBox="0 0 580 580" enable-background="new 0 0 580 580"><path d="M293.8 6.8c-74.1-.1-88.9 2.5-135 23.7-83.2 30.9-62.6 77.1-65.3 139.3-2.7 62.6-3.8 108.1-1.9 145.3 1.8 37.2 6.6 66.1 15.7 95.2 10.7 34.2 22.9 66.9 27.3 72.8 4.4 5.9 15.7 9.7 25.2 8.3 15.7-2.2 17.8-8.7 20-66.8l2.3-64.5h223.39999999999998l2.3 64.5c2.4 62.6 3 64.5 23.1 64.5 17.8 0 23.3-7.1 39-49.9 12.2-33.4 18.4-69.9 18.7-110.3.7-55.7.4-112.2.5-162.5 0-100.9-5.1-111.8-68.1-139.9-36.5-16.3-57.9-19.6-127.2-19.7zm-166.5 74.7h332.8l2.6 56.2 2.3 56.2h-342.6l2.6-56.2 2.3-56.2zm310 154.7c25.1.1 30.7 3.7 32.3 25.6.9 25.7-31.1 23.1-47.7 22-32.7 1.8-36.7-4.8-36.7-23.4 0-18.6 4-21.1 36.7-23.4 5.1-.4 10.3-.8 15.4-.8zm-293.6.2c5.3-.1 11.5 0 19 .5 36 2.3 39.5 4.5 39.5 23.4s-3.5 20.8-39.5 23.1c-41.5 2.7-55.4-8.4-44.7-36.1 2.8-7.3 9.9-10.5 25.7-10.9zm91.8 161.2c0 55.5.9 120.6 1.3 174.6 49.1 1.5 54.6.9 115.2.1v-174.7h-116.5z"/></svg>