<?xml version="1.0" encoding="UTF-8"?><svg width="384" height="384" version="1.1" viewBox="0 0 384 384" xmlns="http://www.w3.org/2000/svg" xmlns:xlink="http://www.w3.org/1999/xlink"><!--Generated by IJSVG (https://github.com/curthard89/IJSVG)--><g transform="scale(16)"><path fill="#000" d="M15,11h-4.219c-0.689,0 -1.288,-0.467 -1.455,-1.136l-1.217,-4.864h-0.609c-0.276,0 -0.5,-0.224 -0.5,-0.5c0,-0.276 0.224,-0.5 0.5,-0.5h1c0.229,0 0.429,0.156 0.485,0.379l1.311,5.243c0.056,0.222 0.255,0.378 0.485,0.378h4.219c0.276,0 0.5,0.224 0.5,0.5c0,0.276 -0.224,0.5 -0.5,0.5Z"></path><path fill="#000" d="M14.653,9h-5.153c-0.276,0 -0.5,-0.224 -0.5,-0.5c0,-0.276 0.224,-0.5 0.5,-0.5h5.153c0.246,0 0.453,-0.176 0.493,-0.417l0.264,-1.583h-6.41c-0.276,0 -0.5,-0.224 -0.5,-0.5c0,-0.276 0.224,-0.5 0.5,-0.5h7c0.147,0 0.287,0.064 0.381,0.177c0.095,0.112 0.136,0.26 0.112,0.405l-0.361,2.165c-0.12,0.726 -0.742,1.253 -1.479,1.253Z"></path><path fill="#000" d="M10.8536,11.6464c0.195262,0.195262 0.195262,0.511845 0,0.707107c-0.195262,0.195262 -0.511845,0.195262 -0.707107,0c-0.195262,-0.195262 -0.195262,-0.511845 0,-0.707107c0.195262,-0.195262 0.511845,-0.195262 0.707107,0"></path><path fill="#000" d="M11.2071,11.2929c0.390524,0.390524 0.390524,1.02369 0,1.41421c-0.390524,0.390524 -1.02369,0.390524 -1.41421,0c-0.390524,-0.390524 -0.390524,-1.02369 0,-1.41421c0.390524,-0.390524 1.02369,-0.390524 1.41421,0"></path><path fill="#000" d="M14.8536,11.6464c0.195262,0.195262 0.195262,0.511845 0,0.707107c-0.195262,0.195262 -0.511845,0.195262 -0.707107,0c-0.195262,-0.195262 -0.195262,-0.511845 0,-0.707107c0.195262,-0.195262 0.511845,-0.195262 0.707107,0"></path><path fill="#000" d="M15.2071,11.2929c0.390524,0.390524 0.390524,1.02369 0,1.41421c-0.390524,0.390524 -1.02369,0.390524 -1.41421,0c-0.390524,-0.390524 -0.390524,-1.02369 0,-1.41421c0.390524,-0.390524 1.02369,-0.390524 1.41421,0"></path><path fill="#000" d="M12,24c-0.117,0 -0.233,-0.041 -0.327,-0.122c-0.334,-0.288 -8.173,-7.16 -8.173,-15.378c0,-4.687 3.813,-8.5 8.5,-8.5c4.687,0 8.5,3.813 8.5,8.5c0,8.218 -7.839,15.09 -8.173,15.378c-0.094,0.081 -0.21,0.122 -0.327,0.122Zm0,-23c-4.136,0 -7.5,3.364 -7.5,7.5c0,6.842 6.016,12.926 7.5,14.322c1.483,-1.397 7.5,-7.488 7.5,-14.322c0,-4.136 -3.364,-7.5 -7.5,-7.5Z"></path></g></svg>