<?xml version="1.0" encoding="UTF-8"?><svg width="384" height="384" version="1.1" viewBox="0 0 384 384" xmlns="http://www.w3.org/2000/svg" xmlns:xlink="http://www.w3.org/1999/xlink"><!--Generated by IJSVG (https://github.com/curthard89/IJSVG)--><g transform="scale(16)"><path fill="#000" d="M10,13c-0.276,0 -0.5,-0.224 -0.5,-0.5v-7c0,-0.276 0.224,-0.5 0.5,-0.5c0.276,0 0.5,0.224 0.5,0.5v7c0,0.276 -0.224,0.5 -0.5,0.5Z"></path><path fill="#000" d="M10,9c-1.252,0 -2,-0.935 -2,-2.5v-1c0,-0.276 0.224,-0.5 0.5,-0.5c0.276,0 0.5,0.224 0.5,0.5v1c0,1.5 0.753,1.5 1,1.5c0.247,0 1,0 1,-1.5v-1c0,-0.276 0.224,-0.5 0.5,-0.5c0.276,0 0.5,0.224 0.5,0.5v1c0,1.565 -0.748,2.5 -2,2.5Z"></path><path fill="#000" d="M15,13c-0.276,0 -0.5,-0.224 -0.5,-0.5v-2.5h-1c-0.16,0 -0.684,-0.07 -0.684,-0.969c0,-0.62 0.216,-1.564 0.538,-2.351c0.457,-1.115 1.01,-1.68 1.646,-1.68c0.276,0 0.5,0.224 0.5,0.5v7c0,0.276 -0.224,0.5 -0.5,0.5Zm-1.187,-4h0.687v-2.413c-0.425,0.771 -0.676,1.91 -0.687,2.413Z"></path><path fill="#000" d="M12,24c-0.116,0 -0.233,-0.041 -0.327,-0.122c-0.334,-0.288 -8.173,-7.16 -8.173,-15.378c0,-4.687 3.813,-8.5 8.5,-8.5c4.687,0 8.5,3.813 8.5,8.5c0,8.218 -7.839,15.09 -8.173,15.378c-0.094,0.081 -0.211,0.122 -0.327,0.122Zm0,-23c-4.136,0 -7.5,3.364 -7.5,7.5c0,6.842 6.016,12.926 7.5,14.322c1.483,-1.397 7.5,-7.488 7.5,-14.322c0,-4.136 -3.364,-7.5 -7.5,-7.5Z"></path></g></svg>