<?xml version="1.0" encoding="UTF-8"?><svg width="384" height="384" version="1.1" viewBox="0 0 384 384" xmlns="http://www.w3.org/2000/svg" xmlns:xlink="http://www.w3.org/1999/xlink"><!--Generated by IJSVG (https://github.com/curthard89/IJSVG)--><g transform="scale(16)"><path fill="#FFF" d="M12,4.5c-4.136,0 -7.5,3.364 -7.5,7.5c0,4.136 3.364,7.5 7.5,7.5c4.136,0 7.5,-3.364 7.5,-7.5c0,-4.136 -3.364,-7.5 -7.5,-7.5Z"></path><path fill="#FFF" d="M12,3.5c0.276,0 0.5,-0.224 0.5,-0.5v-2c0,-0.276 -0.224,-0.5 -0.5,-0.5c-0.276,0 -0.5,0.224 -0.5,0.5v2c0,0.276 0.224,0.5 0.5,0.5Z"></path><path fill="#FFF" d="M12,20.5c-0.276,0 -0.5,0.224 -0.5,0.5v2c0,0.276 0.224,0.5 0.5,0.5c0.276,0 0.5,-0.224 0.5,-0.5v-2c0,-0.276 -0.224,-0.5 -0.5,-0.5Z"></path><path fill="#FFF" d="M7.067,4.456c0.093,0.16 0.261,0.25 0.433,0.25c0.085,0 0.171,-0.021 0.25,-0.067c0.239,-0.139 0.321,-0.444 0.183,-0.683l-1,-1.732c-0.139,-0.24 -0.445,-0.322 -0.683,-0.183c-0.239,0.138 -0.321,0.443 -0.183,0.683l1,1.732Z"></path><path fill="#FFF" d="M16.933,19.544c-0.139,-0.24 -0.445,-0.322 -0.683,-0.183c-0.239,0.138 -0.321,0.444 -0.183,0.683l1,1.732c0.093,0.161 0.261,0.25 0.434,0.25c0.085,0 0.171,-0.021 0.25,-0.067c0.239,-0.138 0.321,-0.444 0.183,-0.683l-1.001,-1.732Z"></path><path fill="#FFF" d="M2.224,6.933l1.732,1c0.078,0.046 0.164,0.067 0.249,0.067c0.173,0 0.341,-0.089 0.434,-0.25c0.138,-0.239 0.056,-0.545 -0.183,-0.683l-1.732,-1c-0.239,-0.138 -0.545,-0.057 -0.683,0.183c-0.139,0.239 -0.057,0.545 0.183,0.683Z"></path><path fill="#FFF" d="M21.776,17.067l-1.732,-1c-0.239,-0.138 -0.545,-0.057 -0.683,0.183c-0.138,0.239 -0.056,0.545 0.183,0.683l1.732,1c0.079,0.046 0.165,0.067 0.25,0.067c0.173,0 0.341,-0.089 0.434,-0.25c0.138,-0.239 0.056,-0.545 -0.184,-0.683Z"></path><path fill="#FFF" d="M3.5,12c0,-0.276 -0.224,-0.5 -0.5,-0.5h-2c-0.276,0 -0.5,0.224 -0.5,0.5c0,0.276 0.224,0.5 0.5,0.5h2c0.276,0 0.5,-0.224 0.5,-0.5Z"></path><path fill="#FFF" d="M23,11.5h-2c-0.276,0 -0.5,0.224 -0.5,0.5c0,0.276 0.224,0.5 0.5,0.5h2c0.276,0 0.5,-0.224 0.5,-0.5c0,-0.276 -0.224,-0.5 -0.5,-0.5Z"></path><path fill="#FFF" d="M3.956,16.067l-1.732,1c-0.239,0.138 -0.321,0.444 -0.183,0.683c0.092,0.161 0.26,0.25 0.433,0.25c0.085,0 0.171,-0.021 0.25,-0.067l1.732,-1c0.239,-0.138 0.321,-0.444 0.183,-0.683c-0.139,-0.24 -0.446,-0.321 -0.683,-0.183Z"></path><path fill="#FFF" d="M19.795,8c0.085,0 0.171,-0.021 0.25,-0.067l1.732,-1c0.239,-0.138 0.321,-0.444 0.183,-0.683c-0.139,-0.24 -0.445,-0.321 -0.683,-0.183l-1.732,1c-0.239,0.138 -0.321,0.444 -0.183,0.683c0.092,0.161 0.26,0.25 0.433,0.25Z"></path><path fill="#FFF" d="M7.75,19.361c-0.239,-0.139 -0.545,-0.057 -0.683,0.183l-1,1.732c-0.138,0.239 -0.056,0.545 0.183,0.683c0.079,0.045 0.165,0.067 0.25,0.067c0.173,0 0.341,-0.089 0.434,-0.25l1,-1.732c0.137,-0.239 0.055,-0.544 -0.184,-0.683Z"></path><path fill="#FFF" d="M16.25,4.639c0.079,0.045 0.165,0.067 0.25,0.067c0.173,0 0.341,-0.089 0.434,-0.25l1,-1.732c0.138,-0.239 0.056,-0.545 -0.183,-0.683c-0.239,-0.139 -0.545,-0.057 -0.683,0.183l-1,1.732c-0.139,0.239 -0.057,0.544 0.182,0.683Z"></path></g></svg>