<svg height="384" viewBox="0 0 384 384" width="384" xmlns="http://www.w3.org/2000/svg"><g transform="scale(16)"><path d="m12 19.5c-4.136 0-7.5-3.364-7.5-7.5s3.364-7.5 7.5-7.5 7.5 3.364 7.5 7.5-3.364 7.5-7.5 7.5zm0-14c-3.584 0-6.5 2.916-6.5 6.5s2.916 6.5 6.5 6.5 6.5-2.916 6.5-6.5-2.916-6.5-6.5-6.5z"/><path d="m12 3.5c-.276 0-.5-.224-.5-.5v-2c0-.276.224-.5.5-.5s.5.224.5.5v2c0 .276-.224.5-.5.5z"/><path d="m12 23.5c-.276 0-.5-.224-.5-.5v-2c0-.276.224-.5.5-.5s.5.224.5.5v2c0 .276-.224.5-.5.5z"/><path d="m7.5 4.706c-.173 0-.341-.089-.434-.25l-1-1.732c-.137-.24-.055-.545.184-.683.238-.139.544-.057.683.183l1 1.732c.138.239.056.544-.183.683-.079.045-.165.067-.25.067z"/><path d="m17.5 22.026c-.173 0-.341-.089-.434-.25l-1-1.732c-.138-.239-.056-.545.183-.683.238-.139.544-.057.683.183l1 1.732c.138.239.056.545-.183.683-.078.046-.164.067-.249.067z"/><path d="m4.205 8c-.085 0-.171-.021-.249-.067l-1.732-1c-.24-.138-.322-.444-.183-.683.138-.24.444-.321.683-.183l1.732 1c.239.138.321.444.183.683-.093.161-.261.25-.434.25z"/><path d="m21.526 18c-.085 0-.171-.021-.25-.067l-1.732-1c-.239-.138-.321-.444-.183-.683.138-.24.444-.321.683-.183l1.732 1c.239.138.321.444.183.683-.092.161-.26.25-.433.25z"/><path d="m3 12.5h-2c-.276 0-.5-.224-.5-.5s.224-.5.5-.5h2c.276 0 .5.224.5.5s-.224.5-.5.5z"/><path d="m23 12.5h-2c-.276 0-.5-.224-.5-.5s.224-.5.5-.5h2c.276 0 .5.224.5.5s-.224.5-.5.5z"/><path d="m2.474 18c-.173 0-.341-.089-.434-.25-.138-.239-.056-.545.183-.683l1.732-1c.238-.138.545-.057.684.183.138.239.056.545-.183.683l-1.732 1c-.079.046-.165.067-.25.067z"/><path d="m19.795 8c-.173 0-.341-.089-.434-.25-.138-.239-.056-.545.183-.683l1.732-1c.238-.138.544-.057.683.183.138.239.056.545-.183.683l-1.732 1c-.078.046-.164.067-.249.067z"/><path d="m6.5 22.026c-.085 0-.171-.021-.25-.067-.239-.138-.321-.444-.183-.683l1-1.732c.138-.24.444-.322.683-.183.239.138.321.444.183.683l-1 1.732c-.093.161-.261.25-.433.25z"/><path d="m16.5 4.706c-.085 0-.171-.021-.25-.067-.239-.138-.321-.444-.183-.683l1-1.732c.138-.24.444-.322.683-.183.239.138.321.444.183.683l-1 1.732c-.093.16-.261.25-.433.25z"/></g></svg>