<?xml version="1.0" encoding="UTF-8"?><svg width="384" height="384" version="1.1" viewBox="0 0 384 384" xmlns="http://www.w3.org/2000/svg" xmlns:xlink="http://www.w3.org/1999/xlink"><!--Generated by IJSVG (https://github.com/curthard89/IJSVG)--><g transform="scale(16)"><path fill="#000" d="M4,24c-0.109,0 -0.22,-0.036 -0.312,-0.109c-0.215,-0.173 -0.25,-0.487 -0.078,-0.703l4,-5c0.174,-0.214 0.488,-0.25 0.703,-0.078c0.215,0.173 0.25,0.487 0.078,0.703l-4,5c-0.099,0.123 -0.245,0.187 -0.391,0.187Z"></path><path fill="#000" d="M20,24c-0.147,0 -0.292,-0.064 -0.391,-0.188l-4,-5c-0.172,-0.216 -0.137,-0.53 0.078,-0.703c0.216,-0.173 0.531,-0.136 0.703,0.078l4,5c0.172,0.216 0.137,0.53 -0.078,0.703c-0.092,0.074 -0.202,0.11 -0.312,0.11Z"></path><path fill="#000" d="M19,23h-14c-0.276,0 -0.5,-0.224 -0.5,-0.5c0,-0.276 0.224,-0.5 0.5,-0.5h14c0.276,0 0.5,0.224 0.5,0.5c0,0.276 -0.224,0.5 -0.5,0.5Z"></path><path fill="#000" d="M17.5,21h-11c-0.276,0 -0.5,-0.224 -0.5,-0.5c0,-0.276 0.224,-0.5 0.5,-0.5h11c0.276,0 0.5,0.224 0.5,0.5c0,0.276 -0.224,0.5 -0.5,0.5Z"></path><path fill="#000" d="M7.35355,15.1464c0.195262,0.195262 0.195262,0.511845 0,0.707107c-0.195262,0.195262 -0.511845,0.195262 -0.707107,0c-0.195262,-0.195262 -0.195262,-0.511845 0,-0.707107c0.195262,-0.195262 0.511845,-0.195262 0.707107,0"></path><path fill="#000" d="M12,13.822c1.173,-1.056 5.083,-4.392 7.975,-4.778l-0.319,-5.739c-0.102,-1.853 -1.637,-3.305 -3.494,-3.305h-8.324c-1.857,0 -3.392,1.452 -3.494,3.306l-0.319,5.739c2.892,0.385 6.802,3.721 7.975,4.777Zm5.555,-9.319c0.254,0.028 0.445,0.242 0.445,0.497v3.5c0,0.142 -0.061,0.278 -0.167,0.373c-0.092,0.082 -0.21,0.127 -0.333,0.127c-0.019,0 -0.037,-0.001 -0.055,-0.003l-4.5,-0.5c-0.254,-0.028 -0.445,-0.242 -0.445,-0.497v-3.5c0,-0.142 0.061,-0.278 0.167,-0.373c0.106,-0.095 0.247,-0.139 0.389,-0.125l4.499,0.501Zm-5.555,-3.503c0.827,0 1.5,0.673 1.5,1.5c0,0.827 -0.673,1.5 -1.5,1.5c-0.827,0 -1.5,-0.673 -1.5,-1.5c0,-0.827 0.673,-1.5 1.5,-1.5Zm-6,4c0,-0.255 0.191,-0.469 0.445,-0.497l4.5,-0.5c0.142,-0.015 0.283,0.029 0.389,0.125c0.105,0.094 0.166,0.23 0.166,0.372v3.5c0,0.255 -0.191,0.469 -0.445,0.497l-4.5,0.5c-0.018,0.002 -0.036,0.003 -0.055,0.003c-0.123,0 -0.241,-0.045 -0.333,-0.127c-0.106,-0.095 -0.167,-0.231 -0.167,-0.373v-3.5Z"></path><path fill="#000" d="M17.3536,15.1464c0.195262,0.195262 0.195262,0.511845 0,0.707107c-0.195262,0.195262 -0.511845,0.195262 -0.707107,0c-0.195262,-0.195262 -0.195262,-0.511845 0,-0.707107c0.195262,-0.195262 0.511845,-0.195262 0.707107,0"></path><path fill="#000" d="M12.3536,2.14645c0.195262,0.195262 0.195262,0.511845 0,0.707107c-0.195262,0.195262 -0.511845,0.195262 -0.707107,0c-0.195262,-0.195262 -0.195262,-0.511845 0,-0.707107c0.195262,-0.195262 0.511845,-0.195262 0.707107,0"></path><path fill="#000" d="M12.343,14.863c-0.029,0.028 -0.065,0.043 -0.099,0.063c-0.02,0.011 -0.036,0.028 -0.057,0.036c-0.06,0.025 -0.123,0.038 -0.187,0.038c-0.064,0 -0.128,-0.013 -0.188,-0.038c-0.02,-0.008 -0.036,-0.024 -0.056,-0.035c-0.034,-0.019 -0.07,-0.035 -0.1,-0.063c-0.049,-0.046 -4.675,-4.381 -7.687,-4.82l-0.351,6.318c-0.039,0.693 0.203,1.353 0.68,1.857c0.477,0.503 1.122,0.781 1.816,0.781h11.771c0.694,0 1.339,-0.278 1.816,-0.782c0.477,-0.504 0.719,-1.164 0.68,-1.857l-0.351,-6.318c-3.011,0.439 -7.638,4.774 -7.687,4.82Zm-5.343,2.137c-0.827,0 -1.5,-0.673 -1.5,-1.5c0,-0.827 0.673,-1.5 1.5,-1.5c0.827,0 1.5,0.673 1.5,1.5c0,0.827 -0.673,1.5 -1.5,1.5Zm10,0c-0.827,0 -1.5,-0.673 -1.5,-1.5c0,-0.827 0.673,-1.5 1.5,-1.5c0.827,0 1.5,0.673 1.5,1.5c0,0.827 -0.673,1.5 -1.5,1.5Z"></path></g></svg>