<svg xmlns="http://www.w3.org/2000/svg" viewBox="0 0 24 24" enable-background="new 0 0 24 24">
  <path d="M4 24c-.109 0-.22-.036-.312-.109-.215-.173-.25-.487-.078-.703l4-5c.174-.214.488-.25.703-.078.215.173.25.487.078.703l-4 5c-.099.123-.245.187-.391.187zM20 24c-.147 0-.292-.064-.391-.188l-4-5c-.172-.216-.137-.53.078-.703.216-.173.531-.136.703.078l4 5c.172.216.137.53-.078.703-.092.074-.202.11-.312.11zM19 23h-14c-.276 0-.5-.224-.5-.5s.224-.5.5-.5h14c.276 0 .5.224.5.5s-.224.5-.5.5zM17.5 21h-11c-.276 0-.5-.224-.5-.5s.224-.5.5-.5h11c.276 0 .5.224.5.5s-.224.5-.5.5zM17.886 19h-11.772c-.694 0-1.339-.278-1.816-.782-.477-.504-.719-1.164-.68-1.857l.726-13.055c.102-1.854 1.637-3.306 3.494-3.306h8.324c1.857 0 3.392 1.452 3.494 3.306l.726 13.056c.039.693-.203 1.353-.68 1.857-.477.503-1.122.781-1.816.781zm-10.048-18c-1.326 0-2.423 1.037-2.496 2.361l-.726 13.056c-.023.416.122.812.408 1.114.287.302.674.469 1.09.469h11.771c.417 0 .804-.167 1.09-.469.286-.302.431-.698.408-1.114l-.725-13.056c-.073-1.324-1.17-2.361-2.496-2.361h-8.324zM12 4c-.827 0-1.5-.673-1.5-1.5s.673-1.5 1.5-1.5 1.5.673 1.5 1.5-.673 1.5-1.5 1.5zm0-2c-.276 0-.5.224-.5.5s.224.5.5.5.5-.224.5-.5-.224-.5-.5-.5zM6.5 9c-.123 0-.241-.045-.333-.127-.106-.095-.167-.231-.167-.373v-3.5c0-.255.191-.469.445-.497l4.5-.5c.142-.015.283.029.389.125.105.094.166.23.166.372v3.5c0 .255-.191.469-.445.497l-4.5.5-.055.003zm.5-3.552v2.494l3.5-.389v-2.494l-3.5.389zM17.5 9l-.055-.003-4.5-.5c-.254-.028-.445-.242-.445-.497v-3.5c0-.142.061-.278.167-.373.106-.095.247-.139.389-.125l4.5.5c.253.029.444.243.444.498v3.5c0 .142-.061.278-.167.373-.092.082-.21.127-.333.127zm-4-1.448l3.5.389v-2.493l-3.5-.389v2.493zM12 15c-.141 0-.28-.059-.379-.174-.042-.049-4.18-4.826-7.121-4.826-.276 0-.5-.224-.5-.5s.224-.5.5-.5c3.399 0 7.698 4.963 7.879 5.174.18.209.156.525-.054.705-.094.081-.209.121-.325.121zM12 15c-.116 0-.231-.04-.326-.121-.209-.18-.233-.496-.054-.705.182-.211 4.481-5.174 7.88-5.174.276 0 .5.224.5.5s-.224.5-.5.5c-2.443 0-5.969 3.483-7.121 4.826-.098.115-.238.174-.379.174zM7 17c-.827 0-1.5-.673-1.5-1.5s.673-1.5 1.5-1.5 1.5.673 1.5 1.5-.673 1.5-1.5 1.5zm0-2c-.276 0-.5.224-.5.5s.224.5.5.5.5-.224.5-.5-.224-.5-.5-.5zM17 17c-.827 0-1.5-.673-1.5-1.5s.673-1.5 1.5-1.5 1.5.673 1.5 1.5-.673 1.5-1.5 1.5zm0-2c-.276 0-.5.224-.5.5s.224.5.5.5.5-.224.5-.5-.224-.5-.5-.5z" />
</svg>
