<?xml version="1.0" encoding="UTF-8"?><svg width="384" height="384" version="1.1" viewBox="0 0 384 384" xmlns="http://www.w3.org/2000/svg" xmlns:xlink="http://www.w3.org/1999/xlink"><!--Generated by IJSVG (https://github.com/curthard89/IJSVG)--><g transform="scale(16)"><path fill="#000" d="M16.8536,16.1464c0.195262,0.195262 0.195262,0.511845 0,0.707107c-0.195262,0.195262 -0.511845,0.195262 -0.707107,0c-0.195262,-0.195262 -0.195262,-0.511845 0,-0.707107c0.195262,-0.195262 0.511845,-0.195262 0.707107,0"></path><path fill="#000" d="M19.124,5.334c-0.087,-1.309 -1.183,-2.334 -2.495,-2.334h-9.258c-1.312,0 -2.408,1.025 -2.495,2.334l-0.876,13.166c0,1.473 4.216,2.5 8,2.5c3.784,0 8,-1.027 7.999,-2.533l-0.875,-13.133Zm-12.31,1.074c0.049,-0.79 0.707,-1.408 1.497,-1.408h7.378c0.791,0 1.448,0.618 1.497,1.408l0.313,5.062c0.001,1.422 -4.209,1.53 -5.499,1.53c-1.29,0 -5.5,-0.108 -5.5,-1.5l0.314,-5.092Zm0.686,11.592c-0.827,0 -1.5,-0.673 -1.5,-1.5c0,-0.827 0.673,-1.5 1.5,-1.5c0.827,0 1.5,0.673 1.5,1.5c0,0.827 -0.673,1.5 -1.5,1.5Zm6,-1h-3c-0.276,0 -0.5,-0.224 -0.5,-0.5c0,-0.276 0.224,-0.5 0.5,-0.5h3c0.276,0 0.5,0.224 0.5,0.5c0,0.276 -0.224,0.5 -0.5,0.5Zm3,1c-0.827,0 -1.5,-0.673 -1.5,-1.5c0,-0.827 0.673,-1.5 1.5,-1.5c0.827,0 1.5,0.673 1.5,1.5c0,0.827 -0.673,1.5 -1.5,1.5Z"></path><path fill="#000" d="M7.85355,16.1464c0.195262,0.195262 0.195262,0.511845 0,0.707107c-0.195262,0.195262 -0.511845,0.195262 -0.707107,0c-0.195262,-0.195262 -0.195262,-0.511845 0,-0.707107c0.195262,-0.195262 0.511845,-0.195262 0.707107,0"></path><path fill="#000" d="M16.5,2c-0.136,0 -0.272,-0.055 -0.371,-0.164v0c-0.001,0 -0.899,-0.836 -4.129,-0.836c-3.235,0 -4.131,0.838 -4.14,0.847c-0.192,0.189 -0.507,0.195 -0.701,0.007c-0.195,-0.188 -0.21,-0.49 -0.029,-0.69c0.107,-0.119 1.162,-1.164 4.87,-1.164c3.708,0 4.763,1.045 4.871,1.164c0.186,0.205 0.17,0.521 -0.035,0.707c-0.096,0.086 -0.216,0.129 -0.336,0.129Z"></path><path fill="#000" d="M12,4c-0.176,0 -0.338,-0.092 -0.429,-0.243l-1.5,-2.5c-0.142,-0.237 -0.065,-0.544 0.171,-0.686c0.237,-0.143 0.544,-0.065 0.686,0.171l1.072,1.786l1.071,-1.786c0.143,-0.237 0.449,-0.314 0.686,-0.171c0.237,0.142 0.313,0.449 0.171,0.686l-1.5,2.5c-0.09,0.151 -0.252,0.243 -0.428,0.243Z"></path><path fill="#000" d="M3.5,24c-0.115,0 -0.231,-0.04 -0.325,-0.121c-0.21,-0.18 -0.234,-0.495 -0.054,-0.705l3,-3.5c0.18,-0.21 0.496,-0.234 0.705,-0.054c0.21,0.18 0.234,0.495 0.054,0.705l-3,3.5c-0.099,0.116 -0.239,0.175 -0.38,0.175Z"></path><path fill="#000" d="M20.5,24c-0.141,0 -0.281,-0.059 -0.379,-0.175l-3,-3.5c-0.18,-0.209 -0.156,-0.525 0.054,-0.705c0.21,-0.18 0.525,-0.156 0.705,0.054l3,3.5c0.18,0.209 0.156,0.525 -0.054,0.705c-0.095,0.081 -0.211,0.121 -0.326,0.121Z"></path><path fill="#000" d="M19.5,23h-15c-0.276,0 -0.5,-0.224 -0.5,-0.5c0,-0.276 0.224,-0.5 0.5,-0.5h15c0.276,0 0.5,0.224 0.5,0.5c0,0.276 -0.224,0.5 -0.5,0.5Z"></path><path fill="#000" d="M17.5,21h-11c-0.276,0 -0.5,-0.224 -0.5,-0.5c0,-0.276 0.224,-0.5 0.5,-0.5h11c0.276,0 0.5,0.224 0.5,0.5c0,0.276 -0.224,0.5 -0.5,0.5Z"></path></g></svg>