<?xml version="1.0" encoding="UTF-8"?><svg width="384" height="384" version="1.1" viewBox="0 0 384 384" xmlns="http://www.w3.org/2000/svg" xmlns:xlink="http://www.w3.org/1999/xlink"><!--Generated by IJSVG (https://github.com/curthard89/IJSVG)--><g transform="scale(16)"><path fill="#444" d="M3,7.5c0,-0.276 -0.224,-0.5 -0.5,-0.5c-1.379,0 -2.5,1.122 -2.5,2.5v1c0,0.827 0.673,1.5 1.5,1.5h1c0.276,0 0.5,-0.224 0.5,-0.5c0,-0.276 -0.224,-0.5 -0.5,-0.5v-3c0.276,0 0.5,-0.224 0.5,-0.5Z"></path><path fill="#444" d="M21.5,7c-0.276,0 -0.5,0.224 -0.5,0.5c0,0.276 0.224,0.5 0.5,0.5v3c-0.276,0 -0.5,0.224 -0.5,0.5c0,0.276 0.224,0.5 0.5,0.5h1c0.827,0 1.5,-0.673 1.5,-1.5v-1c0,-1.378 -1.121,-2.5 -2.5,-2.5Z"></path><path fill="#444" d="M8.5,21c-0.276,0 -0.5,0.224 -0.5,0.5h-3c0,-0.276 -0.224,-0.5 -0.5,-0.5c-0.276,0 -0.5,0.224 -0.5,0.5v1c0,0.827 0.673,1.5 1.5,1.5h2c0.827,0 1.5,-0.673 1.5,-1.5v-1c0,-0.276 -0.224,-0.5 -0.5,-0.5Z"></path><path fill="#444" d="M19.5,21c-0.276,0 -0.5,0.224 -0.5,0.5h-3c0,-0.276 -0.224,-0.5 -0.5,-0.5c-0.276,0 -0.5,0.224 -0.5,0.5v1c0,0.827 0.673,1.5 1.5,1.5h2c0.827,0 1.5,-0.673 1.5,-1.5v-1c0,-0.276 -0.224,-0.5 -0.5,-0.5Z"></path><path fill="#444" d="M19.5,0h-15c-1.379,0 -2.5,1.122 -2.5,2.5v17c0,1.378 1.121,2.5 2.5,2.5h15c1.379,0 2.5,-1.122 2.5,-2.5v-17c0,-1.378 -1.121,-2.5 -2.5,-2.5Zm-13,2h11c0.827,0 1.5,0.673 1.5,1.5c0,0.827 -0.673,1.5 -1.5,1.5h-11c-0.827,0 -1.5,-0.673 -1.5,-1.5c0,-0.827 0.673,-1.5 1.5,-1.5Zm0,17c-0.827,0 -1.5,-0.673 -1.5,-1.5c0,-0.827 0.673,-1.5 1.5,-1.5c0.827,0 1.5,0.673 1.5,1.5c0,0.827 -0.673,1.5 -1.5,1.5Zm11,0c-0.827,0 -1.5,-0.673 -1.5,-1.5c0,-0.827 0.673,-1.5 1.5,-1.5c0.827,0 1.5,0.673 1.5,1.5c0,0.827 -0.673,1.5 -1.5,1.5Zm2.5,-6.5c0,0.827 -0.673,1.5 -1.5,1.5h-13c-0.827,0 -1.5,-0.673 -1.5,-1.5v-5c0,-0.827 0.673,-1.5 1.5,-1.5h13c0.827,0 1.5,0.673 1.5,1.5v5Z"></path></g></svg>