<?xml version="1.0" encoding="UTF-8"?><svg width="384" height="384" version="1.1" viewBox="0 0 384 384" xmlns="http://www.w3.org/2000/svg" xmlns:xlink="http://www.w3.org/1999/xlink"><!--Generated by IJSVG (https://github.com/curthard89/IJSVG)--><g transform="scale(16)"><path fill="#000" d="M17.7071,17.2929c0.390524,0.390524 0.390524,1.02369 0,1.41421c-0.390524,0.390524 -1.02369,0.390524 -1.41421,0c-0.390524,-0.390524 -0.390524,-1.02369 0,-1.41421c0.390524,-0.390524 1.02369,-0.390524 1.41421,0"></path><path fill="#000" d="M7.70711,17.2929c0.390524,0.390524 0.390524,1.02369 0,1.41421c-0.390524,0.390524 -1.02369,0.390524 -1.41421,0c-0.390524,-0.390524 -0.390524,-1.02369 0,-1.41421c0.390524,-0.390524 1.02369,-0.390524 1.41421,0"></path><path fill="#000" d="M20.11,6.353c-0.078,-1.319 -1.174,-2.353 -2.496,-2.353h-11.228c-1.322,0 -2.418,1.034 -2.496,2.353l-0.765,13c-0.041,0.695 0.2,1.356 0.677,1.862c0.478,0.506 1.123,0.785 1.819,0.785h12.758c0.696,0 1.341,-0.279 1.819,-0.785c0.477,-0.506 0.718,-1.167 0.677,-1.862l-0.765,-13Zm-14.276,1.064c0.044,-0.794 0.702,-1.417 1.498,-1.417h9.336c0.796,0 1.454,0.623 1.498,1.417l0.333,6.056c0.001,1.332 -4.071,1.527 -6.499,1.527c-2.428,0 -6.5,-0.195 -6.5,-1.5l0.334,-6.083Zm8.166,10.083c0,0.276 -0.224,0.5 -0.5,0.5h-3c-0.276,0 -0.5,-0.224 -0.5,-0.5c0,-0.276 0.224,-0.5 0.5,-0.5h3c0.276,0 0.5,0.224 0.5,0.5Zm-7,2.5c-1.103,0 -2,-0.897 -2,-2c0,-1.103 0.897,-2 2,-2c1.103,0 2,0.897 2,2c0,1.103 -0.897,2 -2,2Zm7,0h-4c-0.276,0 -0.5,-0.224 -0.5,-0.5c0,-0.276 0.224,-0.5 0.5,-0.5h4c0.276,0 0.5,0.224 0.5,0.5c0,0.276 -0.224,0.5 -0.5,0.5Zm3,0c-1.103,0 -2,-0.897 -2,-2c0,-1.103 0.897,-2 2,-2c1.103,0 2,0.897 2,2c0,1.103 -0.897,2 -2,2Z"></path><path fill="#000" d="M6.497,2.02c-0.106,0 -0.215,-0.035 -0.309,-0.105c-0.221,-0.166 -0.254,-0.494 -0.088,-0.715c0.15,-0.2 1.141,-1.2 5.9,-1.2c4.759,0 5.75,1 5.9,1.2c0.166,0.221 0.121,0.534 -0.1,0.7c-0.221,0.165 -0.535,0.121 -0.7,-0.1v0c-0.006,2.22045e-16 -0.903,-0.8 -5.1,-0.8c-4.248,0 -5.115,0.82 -5.123,0.828c-0.096,0.127 -0.236,0.192 -0.38,0.192Z"></path><path fill="#000" d="M12,5c-0.2,0 -0.381,-0.119 -0.459,-0.303l-1.5,-3.5c-0.109,-0.253 0.009,-0.547 0.263,-0.656c0.25,-0.11 0.547,0.008 0.656,0.263l1.04,2.426l1.041,-2.427c0.108,-0.254 0.404,-0.372 0.656,-0.263c0.254,0.109 0.372,0.403 0.263,0.656l-1.5,3.5c-0.079,0.185 -0.26,0.304 -0.46,0.304Z"></path><path fill="#000" d="M7.5,21c-0.276,0 -0.5,0.224 -0.5,0.5h-1c0,-0.276 -0.224,-0.5 -0.5,-0.5c-0.276,0 -0.5,0.224 -0.5,0.5v1c0,0.827 0.673,1.5 1.5,1.5c0.827,0 1.5,-0.673 1.5,-1.5v-1c0,-0.276 -0.224,-0.5 -0.5,-0.5Z"></path><path fill="#000" d="M18.5,21c-0.276,0 -0.5,0.224 -0.5,0.5h-1c0,-0.276 -0.224,-0.5 -0.5,-0.5c-0.276,0 -0.5,0.224 -0.5,0.5v1c0,0.827 0.673,1.5 1.5,1.5c0.827,0 1.5,-0.673 1.5,-1.5v-1c0,-0.276 -0.224,-0.5 -0.5,-0.5Z"></path><path fill="#000" d="M20,7c-0.276,0 -0.5,0.224 -0.5,0.5c0,0.276 0.224,0.5 0.5,0.5v3c-0.276,0 -0.5,0.224 -0.5,0.5c0,0.276 0.224,0.5 0.5,0.5h0.5c0.827,0 1.5,-0.673 1.5,-1.5v-1.5c0,-1.103 -0.897,-2 -2,-2Z"></path><path fill="#000" d="M4.5,7.5c0,-0.276 -0.224,-0.5 -0.5,-0.5c-1.103,0 -2,0.897 -2,2v1.5c0,0.827 0.673,1.5 1.5,1.5h0.5c0.276,0 0.5,-0.224 0.5,-0.5c0,-0.276 -0.224,-0.5 -0.5,-0.5v-3c0.276,0 0.5,-0.224 0.5,-0.5Z"></path></g></svg>