<svg xmlns="http://www.w3.org/2000/svg" width="800" height="800" viewBox="0 0 800 800">
  <path d="M678.02 85.46c0 47.266-38.255 85.503-85.529 85.503-47.254 0-85.554-38.237-85.554-85.503 0-47.201 38.3-85.46 85.554-85.46 47.274 0 85.529 38.259 85.529 85.46zm42.103 275.998c-43.254 9.093-73.185 11.286-94.029 9.875-36.518-2.431-45.472-15.756-49.753-22.265-8.435-12.435-11.217-28.429-13.891-47.983l-37.298 115.973c-4.783 12.239-12.608 43.88-23.216 65.474 2.869 3.473 5.632 6.837 8.304 10.025 37.604 45.421 55.731 68.315 58.166 91.928 1.456 13.976 4.412 43.056-123.854 201.062-8.303 10.221-20.758 15.19-32.995 14.366-7.78-.522-15.519-3.364-22.019-8.658-16.78-13.542-19.28-38.217-5.717-54.927 42.819-52.778 91.443-119.206 104.397-145.228-3.563-5.469-9.304-12.954-15.52-20.833-26.279 45.291-87.813 132.684-126.896 187.153-8.15 11.395-21.323 17.103-34.407 16.209-6.979-.454-13.934-2.798-20.106-7.204-17.52-12.521-21.541-36.936-8.999-54.491 55.883-78.036 120.656-172.655 127.872-189.476 2-5.836 4.413-13.064 6.695-21.006-18.063-23.396-33.365-46.139-40.494-66.318-6.651-18.838-1.349-39.693 4.456-58.052 19.562-62.066 57.209-117.338 81.749-177.517-38.669-1.584-96.639 5.1-170.736 40.212-2.521 1.172-5.086 2.019-7.716 2.496l14.955 27.126-42.842 23.525 20.237 36.805-125.982 69.161-95.484-173.76 125.917-69.141 19.28 35.091 42.864-23.524 12.52 22.744c2.608-2.8 5.761-5.209 9.477-6.988 140.631-66.688 237.77-44.64 267.635-34.853 4.848 1.085 9.848 2.691 15.193 4.949 17.236 7.205 28.388 14.821 35.234 22.764 3.434 2.17 6.586 5.1 9.085 8.68 21.91 31.836 27.278 71.789 31.213 100.869.935 7.4 2.261 16.688 3.564 23.089 15.673.477 50.059-2.191 80.271-8.551 17.084-3.515 33.495 7.292 37.082 24.176 3.523 16.927-7.323 33.463-24.212 37.023zm-463.52-104.384l-25.931-47.114-13.716 7.51 25.888 47.114 13.759-7.51z"/>
</svg>
