<svg xmlns="http://www.w3.org/2000/svg" viewBox="0 0 64.06 95.8"><title>walking</title><circle cx="35.67" cy="7.95" r="7.95"/><path d="M77.92 42.85c-2.21-.38-11-1.92-11.55-2.08l-.19-.28c-.18-.29-7.9-16.56-8.65-17.41a13.78 13.78 0 0 0-5.74-3.95 8.45 8.45 0 0 0-5.79.57s-14.53 8.3-15.47 8.74a6 6 0 0 0-1.79 2.17l-6.74 12.71a4 4 0 0 0-.89 2.54 4.09 4.09 0 0 0 8.07 1l6.31-11.93 4-2.21c-.28.85-3.9 18.49-3.9 18.49l-3.74 20.84-12.85 15.49a4.72 4.72 0 1 0 7.06 6.18c2.34-2.72 14.19-16.72 15.33-18.05a6.39 6.39 0 0 0 1.79-3.24c.19-1 2.31-13.74 2.31-13.74l12.13 12.14v21.4a4.75 4.75 0 0 0 9.45 0v-.58c0-3.26-.12-19.5 0-23.17.15-4.1-1.31-5-1.64-5.37l-11.62-12.41 2.49-12.09s3.25 6.35 3.58 7a4.35 4.35 0 0 0 2.44 2.21c1.09.24 14.59 3 14.59 3a4.07 4.07 0 0 0 .61.06 4 4 0 0 0 .4-8z" transform="translate(-17.48 -.69)"/></svg>
